<svg id="Layer_1" data-name="Layer 1" xmlns="http://www.w3.org/2000/svg" viewBox="0 0 185 70"><defs><style>.cls-1{fill:#00aeef;}</style></defs><title>FTblue</title><g id="AB_Blue_Swirl_2" data-name="AB Blue Swirl 2"><polygon class="cls-1" points="184.82 16.29 184.82 16.3 184.83 16.29 184.83 16.28 184.82 16.29"/><rect class="cls-1" x="183.53" y="19.3" width="0.01" height="0.01" transform="translate(40.11 135.43) rotate(-45)"/><polygon class="cls-1" points="182.2 22.3 182.22 22.32 182.25 22.29 182.24 22.27 182.2 22.3"/><polygon class="cls-1" points="180.87 25.27 180.89 25.3 180.94 25.25 180.92 25.22 180.87 25.27"/><path class="cls-1" d="M179.51,28.19s0,.06,0,0a.16.16,0,0,0,.08-.08s0-.05,0-.05A.22.22,0,0,0,179.51,28.19Z"/><path class="cls-1" d="M178.16,31.06s0,.06,0,.06.08,0,.09-.08,0-.07,0-.05A.11.11,0,0,0,178.16,31.06Z"/><path class="cls-1" d="M176.77,33.88s0,.07,0,.07a.27.27,0,0,0,.11-.1s0-.07,0-.06A.16.16,0,0,0,176.77,33.88Z"/><path class="cls-1" d="M175.35,36.64s0,.07.05.06a.19.19,0,0,0,.13-.1c0-.05,0-.08,0-.07A.25.25,0,0,0,175.35,36.64Z"/><path class="cls-1" d="M173.9,39.32c0,.06,0,.1.06.08a.27.27,0,0,0,.17-.13c0-.05,0-.1,0-.08A.29.29,0,0,0,173.9,39.32Z"/><path class="cls-1" d="M172.43,41.92c0,.06,0,.1.07.09a.36.36,0,0,0,.18-.14c0-.06,0-.11-.05-.09A.31.31,0,0,0,172.43,41.92Z"/><path class="cls-1" d="M170.94,44.43c0,.06,0,.1.07.09a.34.34,0,0,0,.2-.14c0-.07,0-.1-.06-.09A.43.43,0,0,0,170.94,44.43Z"/><path class="cls-1" d="M169.41,46.85c0,.06,0,.1.06.09a.38.38,0,0,0,.23-.15c0-.06,0-.1-.07-.09A.38.38,0,0,0,169.41,46.85Z"/><path class="cls-1" d="M167.85,49.16c0,.07,0,.11.07.09a.35.35,0,0,0,.23-.14c.06-.07,0-.12-.06-.1A.43.43,0,0,0,167.85,49.16Z"/><path class="cls-1" d="M166.25,51.37c-.06.06,0,.1.06.09a.46.46,0,0,0,.27-.15c0-.07,0-.11-.08-.1A.42.42,0,0,0,166.25,51.37Z"/><path class="cls-1" d="M164.61,53.46c-.06.07,0,.11.07.09a.56.56,0,0,0,.28-.16c0-.07,0-.11-.07-.09A.52.52,0,0,0,164.61,53.46Z"/><path class="cls-1" d="M162.93,55.43c-.06.07,0,.11.08.09a.52.52,0,0,0,.29-.16c.06-.06,0-.11-.08-.09A.64.64,0,0,0,162.93,55.43Z"/><path class="cls-1" d="M161.21,57.27c-.07.07,0,.11.07.08a.66.66,0,0,0,.33-.14c.06-.08,0-.12-.08-.1A.74.74,0,0,0,161.21,57.27Z"/><path class="cls-1" d="M159.44,59c-.07.07,0,.1.09.08a.79.79,0,0,0,.35-.15c.06-.07,0-.11-.09-.09A.81.81,0,0,0,159.44,59Z"/><path class="cls-1" d="M157.64,60.55c-.08.06,0,.1.08.08a.83.83,0,0,0,.37-.16c.08-.07,0-.1-.08-.08A.83.83,0,0,0,157.64,60.55Z"/><path class="cls-1" d="M155.79,62c-.09.06,0,.09.08.07a1.45,1.45,0,0,0,.4-.15c.08-.07,0-.09-.09-.07A.91.91,0,0,0,155.79,62Z"/><path class="cls-1" d="M153.9,63.26c-.08.05-.05.08.09.06a1.6,1.6,0,0,0,.39-.14c.09,0,.06-.09-.08-.06A1.26,1.26,0,0,0,153.9,63.26Z"/><path class="cls-1" d="M151.94,64.39q-.15.09.09.06a2.37,2.37,0,0,0,.47-.15c.11-.06.06-.09-.09-.06A1.73,1.73,0,0,0,151.94,64.39Z"/><path class="cls-1" d="M150,65.37c-.11,0-.07.07.09,0a2.53,2.53,0,0,0,.5-.14c.12,0,.07-.07-.09,0A2,2,0,0,0,150,65.37Z"/><path class="cls-1" d="M148,66.18c-.1,0-.06,0,.09,0l.46-.11c.1,0,.06-.06-.08,0A4.11,4.11,0,0,0,148,66.18Z"/><path class="cls-1" d="M145.89,66.84c-.11,0-.07,0,.07,0l.48-.1c.11,0,.07,0-.08,0Z"/><path class="cls-1" d="M143.77,67.34h.07l.5-.08c.12,0,.09,0-.07,0Z"/><path class="cls-1" d="M141.55,67.68c-.15,0-.11,0,.09,0l.61-.09c.15,0,.11,0-.09,0Z"/><path class="cls-1" d="M139.14,67.89c-.25,0-.18,0,.13-.08s.76-.09,1-.1.18,0-.13.07A6.49,6.49,0,0,1,139.14,67.89Z"/><path class="cls-1" d="M136.88,67.91c-.24,0-.19-.06.13-.12a7.86,7.86,0,0,1,1-.07c.25,0,.18,0-.13.1A6.63,6.63,0,0,1,136.88,67.91Z"/><path class="cls-1" d="M134.85,67.72c-.15,0-.11,0,.07-.09a2.91,2.91,0,0,1,.58,0c.15,0,.12,0-.06.08A3.1,3.1,0,0,1,134.85,67.72Z"/><path class="cls-1" d="M132.52,67.4c-.14,0-.11-.06.07-.1a2.9,2.9,0,0,1,.59,0c.14,0,.12.07-.07.1A1.94,1.94,0,0,1,132.52,67.4Z"/><path class="cls-1" d="M130.15,66.94c-.15,0-.13-.09.06-.12a2.14,2.14,0,0,1,.62,0c.15,0,.12.09-.07.12A1.76,1.76,0,0,1,130.15,66.94Z"/><path class="cls-1" d="M127.73,66.32c-.16,0-.13-.11.06-.15a1.76,1.76,0,0,1,.65,0c.16,0,.13.11-.07.14A1.69,1.69,0,0,1,127.73,66.32Z"/><path class="cls-1" d="M125.28,65.54c-.16-.05-.14-.13.06-.17a1.65,1.65,0,0,1,.67,0c.17.06.14.13-.06.17A1.65,1.65,0,0,1,125.28,65.54Z"/><path class="cls-1" d="M122.8,64.62c-.18-.07-.15-.16,0-.19a1.37,1.37,0,0,1,.7.07c.17.06.15.15-.06.18A1.45,1.45,0,0,1,122.8,64.62Z"/><path class="cls-1" d="M120.28,63.56c-.19-.08-.16-.19,0-.23a1.44,1.44,0,0,1,.72.09c.19.08.16.18,0,.22A1.48,1.48,0,0,1,120.28,63.56Z"/><path class="cls-1" d="M117.73,62.35c-.18-.09-.16-.2.06-.25a1.43,1.43,0,0,1,.74.11c.2.1.17.2,0,.24A1.48,1.48,0,0,1,117.73,62.35Z"/><path class="cls-1" d="M115.16,61c-.2-.1-.17-.23,0-.27a1.27,1.27,0,0,1,.77.13c.2.1.18.22,0,.26A1.27,1.27,0,0,1,115.16,61Z"/><path class="cls-1" d="M112.6,59.55c-.18-.12-.16-.24.06-.28a1.17,1.17,0,0,1,.71.14c.19.1.17.22,0,.26A1.33,1.33,0,0,1,112.6,59.55Z"/><path class="cls-1" d="M110,58c-.2-.12-.18-.25,0-.29a1.25,1.25,0,0,1,.73.14c.19.13.17.25,0,.29A1.16,1.16,0,0,1,110,58Z"/><path class="cls-1" d="M107.37,56.27c-.2-.14-.18-.28,0-.32a1.22,1.22,0,0,1,.74.16c.2.14.18.27,0,.32A1.31,1.31,0,0,1,107.37,56.27Z"/><path class="cls-1" d="M104.67,54.48c-.23-.16-.21-.33,0-.38a1.31,1.31,0,0,1,.87.2c.22.16.2.32,0,.37A1.26,1.26,0,0,1,104.67,54.48Z"/><path class="cls-1" d="M102,52.58c-.24-.17-.22-.35,0-.4a1.38,1.38,0,0,1,.89.22c.23.17.21.35,0,.4A1.3,1.3,0,0,1,102,52.58Z"/><path class="cls-1" d="M99.34,50.61c-.24-.18-.22-.38,0-.42a1.27,1.27,0,0,1,.91.22c.24.19.22.37,0,.43A1.3,1.3,0,0,1,99.34,50.61Z"/><path class="cls-1" d="M96.66,48.56c-.24-.2-.22-.4,0-.45a1.3,1.3,0,0,1,.94.24c.25.2.22.4,0,.46A1.43,1.43,0,0,1,96.66,48.56Z"/><path class="cls-1" d="M94.07,46.42c-.21-.17-.2-.34,0-.4a1.16,1.16,0,0,1,.8.22c.21.18.19.35,0,.4A1.09,1.09,0,0,1,94.07,46.42Z"/><path class="cls-1" d="M91.4,44.24c-.21-.18-.2-.36,0-.41a1.08,1.08,0,0,1,.81.23c.22.17.2.37,0,.41A1.13,1.13,0,0,1,91.4,44.24Z"/><path class="cls-1" d="M88.66,42c-.26-.22-.24-.45,0-.51a1.34,1.34,0,0,1,1,.29c.26.21.23.43-.05.5A1.36,1.36,0,0,1,88.66,42Z"/><path class="cls-1" d="M86,39.78c-.26-.22-.24-.46,0-.52a1.29,1.29,0,0,1,1,.29c.26.22.23.46-.05.52A1.3,1.3,0,0,1,86,39.78Z"/><path class="cls-1" d="M83.36,37.49c-.25-.22-.23-.46.06-.52a1.25,1.25,0,0,1,1,.29c.26.23.24.47,0,.53A1.29,1.29,0,0,1,83.36,37.49Z"/><path class="cls-1" d="M80.75,35.2c-.27-.23-.24-.47,0-.54a1.26,1.26,0,0,1,1,.3c.27.23.24.47-.05.54A1.29,1.29,0,0,1,80.75,35.2Z"/><path class="cls-1" d="M78.13,32.91c-.26-.24-.23-.49.06-.55a1.24,1.24,0,0,1,1,.3c.26.23.23.47-.06.54A1.32,1.32,0,0,1,78.13,32.91Z"/><path class="cls-1" d="M75.66,30.59c-.22-.18-.2-.39,0-.44a1,1,0,0,1,.83.24c.22.18.2.39,0,.45A1,1,0,0,1,75.66,30.59Z"/><path class="cls-1" d="M73.1,28.33c-.21-.19-.19-.39.06-.45a1,1,0,0,1,.82.23c.21.19.19.39,0,.45A1,1,0,0,1,73.1,28.33Z"/><path class="cls-1" d="M70.57,26.09c-.2-.19-.18-.39.06-.45a1,1,0,0,1,.83.23c.22.18.19.39,0,.45A1.06,1.06,0,0,1,70.57,26.09Z"/><path class="cls-1" d="M68,23.92c-.25-.23-.22-.47.08-.54a1.21,1.21,0,0,1,1,.27c.25.22.22.47-.08.53A1.25,1.25,0,0,1,68,23.92Z"/><path class="cls-1" d="M65.53,21.78c-.25-.23-.22-.46.09-.54a1.24,1.24,0,0,1,1,.25c.26.23.22.47-.08.55A1.28,1.28,0,0,1,65.53,21.78Z"/><path class="cls-1" d="M63.11,19.7c-.25-.22-.2-.45.09-.54a1.3,1.3,0,0,1,1,.25c.25.21.21.45-.09.53A1.26,1.26,0,0,1,63.11,19.7Z"/><path class="cls-1" d="M60.83,17.66c-.2-.17-.17-.36.08-.42a1,1,0,0,1,.81.18c.2.17.17.36-.08.43A1,1,0,0,1,60.83,17.66Z"/><path class="cls-1" d="M58.5,15.73c-.2-.16-.16-.34.08-.4a1,1,0,0,1,.8.16c.19.16.16.35-.09.41A1,1,0,0,1,58.5,15.73Z"/><path class="cls-1" d="M56.2,13.89c-.19-.15-.15-.32.1-.39a.94.94,0,0,1,.78.16c.19.14.15.32-.09.39A1,1,0,0,1,56.2,13.89Z"/><path class="cls-1" d="M53.86,12.19c-.23-.18-.17-.38.12-.46a1.21,1.21,0,0,1,1,.16c.23.17.17.38-.12.47A1.3,1.3,0,0,1,53.86,12.19Z"/><path class="cls-1" d="M51.67,10.55c-.22-.15-.17-.35.12-.43a1.19,1.19,0,0,1,.93.14c.22.16.16.35-.13.44A1.22,1.22,0,0,1,51.67,10.55Z"/><path class="cls-1" d="M49.62,9c-.18-.12-.13-.27.1-.34a1.06,1.06,0,0,1,.75.1c.17.12.13.28-.11.34A1,1,0,0,1,49.62,9Z"/><path class="cls-1" d="M47.44,7.64c-.19-.13-.14-.29.14-.37a1.22,1.22,0,0,1,.85.09c.19.13.14.29-.13.37A1.19,1.19,0,0,1,47.44,7.64Z"/><path class="cls-1" d="M45.41,6.37c-.19-.1-.13-.25.13-.33a1.1,1.1,0,0,1,.81.07c.19.1.13.25-.13.33A1.11,1.11,0,0,1,45.41,6.37Z"/><path class="cls-1" d="M43.43,5.24c-.17-.09-.11-.22.14-.3a1.18,1.18,0,0,1,.75,0c.17.1.11.23-.13.3A1.21,1.21,0,0,1,43.43,5.24Z"/><path class="cls-1" d="M41.51,4.25c-.16-.08-.1-.19.13-.26a1.21,1.21,0,0,1,.71,0c.16.08.1.2-.14.26A1.1,1.1,0,0,1,41.51,4.25Z"/><path class="cls-1" d="M39.63,3.41c-.14-.07-.08-.17.14-.23a1.2,1.2,0,0,1,.65,0c.15.06.08.16-.13.22A1.25,1.25,0,0,1,39.63,3.41Z"/><path class="cls-1" d="M37.82,2.71c-.14,0-.08-.13.12-.19a1.14,1.14,0,0,1,.6,0c.13,0,.08.12-.12.19A1.26,1.26,0,0,1,37.82,2.71Z"/><path class="cls-1" d="M36,2.16c-.12,0-.06-.1.12-.16a1.25,1.25,0,0,1,.56,0c.12,0,.07.1-.12.16A1.12,1.12,0,0,1,36,2.16Z"/><path class="cls-1" d="M34.32,1.78c-.11,0,0-.08.12-.14A1.67,1.67,0,0,1,35,1.58c.11,0,0,.09-.12.13A1.5,1.5,0,0,1,34.32,1.78Z"/><path class="cls-1" d="M32.6,1.56c-.11,0-.05-.06.14-.12a1.39,1.39,0,0,1,.53-.08c.11,0,0,.06-.13.11A1.77,1.77,0,0,1,32.6,1.56Z"/><path class="cls-1" d="M30.82,1.53c-.15,0-.06-.06.2-.13a3.15,3.15,0,0,1,.73-.15c.15,0,.06.06-.19.14A3.21,3.21,0,0,1,30.82,1.53Z"/><path class="cls-1" d="M29.42,1.57c-.08,0,0,0,.12-.07L30,1.41c.08,0,0,0-.12.06A2.18,2.18,0,0,1,29.42,1.57Z"/><path class="cls-1" d="M27.85,1.83c-.09,0,0,0,.12-.05s.36-.1.45-.11l-.13,0A3.87,3.87,0,0,1,27.85,1.83Z"/><path class="cls-1" d="M26.39,2.24l.11,0,.35-.11c.07,0,0,0-.11,0Z"/><path class="cls-1" d="M24.94,2.81c-.06,0,0,0,.11,0l.31-.12c.06,0,0,0-.1,0Z"/><path class="cls-1" d="M23.5,3.55c-.06,0,0,0,.11,0A1.67,1.67,0,0,0,24,3.41c.07,0,0,0-.11,0Z"/><path class="cls-1" d="M22.17,4.43c-.05,0,0,0,.09,0a1,1,0,0,0,.25-.11s0,0-.08,0A.91.91,0,0,0,22.17,4.43Z"/><path class="cls-1" d="M20.86,5.46s0,0,.07,0a.75.75,0,0,0,.2-.09s0,0-.07,0A.54.54,0,0,0,20.86,5.46Z"/><path class="cls-1" d="M19.56,6.65s0,0,.06,0a.45.45,0,0,0,.17-.08s0,0-.06,0A.87.87,0,0,0,19.56,6.65Z"/><path class="cls-1" d="M18.33,8s0,0,0,0l.1,0s0,0,0,0Z"/><path class="cls-1" d="M17.08,9.47s0,0,0,0l.08-.05s0,0,0,0Z"/><polygon class="cls-1" points="182.03 16.91 182.03 16.91 182.04 16.91 182.04 16.91 182.03 16.91"/><rect class="cls-1" x="180.73" y="19.91" width="0.01" height="0.01" transform="translate(78.94 170.58) rotate(-62.24)"/><path class="cls-1" d="M179.37,22.9s0,.06,0,.05a.16.16,0,0,0,.09-.07s0-.06,0-.05A.13.13,0,0,0,179.37,22.9Z"/><path class="cls-1" d="M178.05,25.85s0,.06,0,0a.14.14,0,0,0,.1-.08s0-.06,0-.05S178.06,25.81,178.05,25.85Z"/><path class="cls-1" d="M176.65,28.76c0,.06,0,.11.06.1a.4.4,0,0,0,.18-.14c0-.07,0-.11-.07-.1A.33.33,0,0,0,176.65,28.76Z"/><path class="cls-1" d="M175.28,31.62c0,.07,0,.12.07.11a.28.28,0,0,0,.18-.16c0-.07,0-.11-.06-.1A.31.31,0,0,0,175.28,31.62Z"/><path class="cls-1" d="M173.86,34.43c-.05.09,0,.15.08.13a.35.35,0,0,0,.25-.19c.05-.09,0-.16-.08-.13A.37.37,0,0,0,173.86,34.43Z"/><path class="cls-1" d="M172.44,37.17c-.05.1,0,.16.09.14a.42.42,0,0,0,.27-.2c0-.1,0-.16-.09-.14A.47.47,0,0,0,172.44,37.17Z"/><path class="cls-1" d="M170.93,39.85c-.06.12,0,.22.13.19a.62.62,0,0,0,.38-.27c.07-.14,0-.22-.12-.2A.68.68,0,0,0,170.93,39.85Z"/><path class="cls-1" d="M169.46,42.44c-.08.13,0,.22.13.2a.74.74,0,0,0,.41-.29c.07-.14,0-.22-.13-.2A.68.68,0,0,0,169.46,42.44Z"/><path class="cls-1" d="M168,44.94c-.09.13,0,.22.13.2a.79.79,0,0,0,.43-.29c.08-.13,0-.22-.14-.2A.65.65,0,0,0,168,44.94Z"/><path class="cls-1" d="M166.41,47.34c-.08.14,0,.23.14.21a.83.83,0,0,0,.46-.29c.09-.14,0-.24-.13-.21A.73.73,0,0,0,166.41,47.34Z"/><path class="cls-1" d="M164.83,49.65c-.1.14,0,.23.15.21a.84.84,0,0,0,.49-.3c.1-.14,0-.24-.14-.21A.81.81,0,0,0,164.83,49.65Z"/><path class="cls-1" d="M163.21,51.85c-.11.15,0,.23.15.21a1,1,0,0,0,.55-.31c.11-.15,0-.24-.15-.22A.93.93,0,0,0,163.21,51.85Z"/><path class="cls-1" d="M161.55,53.93c-.12.15-.05.24.16.21a1.12,1.12,0,0,0,.59-.31c.12-.15,0-.24-.16-.21A1.09,1.09,0,0,0,161.55,53.93Z"/><path class="cls-1" d="M159.77,55.91c-.16.17-.06.28.19.24a1.44,1.44,0,0,0,.77-.38c.16-.17.07-.29-.2-.25A1.39,1.39,0,0,0,159.77,55.91Z"/><path class="cls-1" d="M158.06,57.74c-.16.16-.08.26.19.22a1.52,1.52,0,0,0,.77-.35c.16-.17.07-.27-.2-.24A1.6,1.6,0,0,0,158.06,57.74Z"/><path class="cls-1" d="M156.3,59.43c-.16.16-.08.25.18.21a1.58,1.58,0,0,0,.78-.33c.17-.16.08-.25-.18-.21A1.58,1.58,0,0,0,156.3,59.43Z"/><path class="cls-1" d="M154.51,61c-.17.14-.09.23.17.19a1.67,1.67,0,0,0,.78-.31c.17-.14.1-.22-.17-.18A1.77,1.77,0,0,0,154.51,61Z"/><path class="cls-1" d="M152.66,62.42c-.17.12-.1.19.17.16a2,2,0,0,0,.8-.29c.17-.12.09-.19-.18-.16A1.91,1.91,0,0,0,152.66,62.42Z"/><path class="cls-1" d="M150.77,63.69c-.17.11-.1.18.16.14a2.27,2.27,0,0,0,.81-.26c.17-.11.1-.17-.16-.14A2.34,2.34,0,0,0,150.77,63.69Z"/><path class="cls-1" d="M148.85,64.82c-.19.1-.12.14.15.11a2.74,2.74,0,0,0,.81-.23c.18-.1.11-.15-.17-.12A2.72,2.72,0,0,0,148.85,64.82Z"/><path class="cls-1" d="M146.69,65.8c-.25.12-.16.17.2.13a4.49,4.49,0,0,0,1.11-.28c.26-.11.16-.17-.2-.13A5.13,5.13,0,0,0,146.69,65.8Z"/><path class="cls-1" d="M144.81,66.61c-.2.06-.13.09.15.06a4,4,0,0,0,.88-.19c.2-.07.13-.09-.16-.07A4.86,4.86,0,0,0,144.81,66.61Z"/><path class="cls-1" d="M142.72,67.26c-.2.07-.14.08.15,0a6.44,6.44,0,0,0,.92-.16c.21-.06.14-.08-.15,0A8.67,8.67,0,0,0,142.72,67.26Z"/><path class="cls-1" d="M140.59,67.77c-.22,0-.15,0,.15,0s.73-.11.95-.15.16,0-.15,0S140.82,67.72,140.59,67.77Z"/><path class="cls-1" d="M138.43,68.1c-.23,0-.17,0,.14,0l1-.12c.22,0,.16,0-.15,0Z"/><path class="cls-1" d="M136.2,68.28c-.23,0-.18,0,.14,0s.78-.08,1-.09.18,0-.14.06S136.45,68.27,136.2,68.28Z"/><path class="cls-1" d="M134,68.3c-.26,0-.2,0,.12-.08a6.88,6.88,0,0,1,1.06-.07c.26,0,.2,0-.13.09A10.39,10.39,0,0,1,134,68.3Z"/><path class="cls-1" d="M131.64,68.15c-.27,0-.21-.07.13-.12a6.89,6.89,0,0,1,1.1,0c.27,0,.21.09-.14.12A5.82,5.82,0,0,1,131.64,68.15Z"/><path class="cls-1" d="M129.29,67.85c-.28,0-.22-.12.12-.16a4.9,4.9,0,0,1,1.15,0c.28,0,.22.12-.13.17A4.79,4.79,0,0,1,129.29,67.85Z"/><path class="cls-1" d="M127,67.39c-.27-.06-.23-.15.11-.19a3.3,3.3,0,0,1,1.1,0c.28.06.23.14-.11.19A4,4,0,0,1,127,67.39Z"/><path class="cls-1" d="M124.49,66.78c-.31-.09-.26-.2.11-.25a3.48,3.48,0,0,1,1.22.08c.3.09.25.19-.12.24A4,4,0,0,1,124.49,66.78Z"/><path class="cls-1" d="M122,66c-.31-.1-.27-.23.11-.28a3.42,3.42,0,0,1,1.25.1c.33.11.27.24-.11.29A3.22,3.22,0,0,1,122,66Z"/><path class="cls-1" d="M119.54,65.1c-.33-.13-.28-.28.11-.33a3.08,3.08,0,0,1,1.29.14c.33.13.28.28-.1.34A3.26,3.26,0,0,1,119.54,65.1Z"/><path class="cls-1" d="M117,64.05c-.35-.16-.29-.33.1-.38a3,3,0,0,1,1.33.17c.34.16.3.33-.1.38A2.93,2.93,0,0,1,117,64.05Z"/><path class="cls-1" d="M114.47,62.85c-.34-.17-.3-.35.1-.42a2.85,2.85,0,0,1,1.36.21c.35.18.31.37-.1.42A2.62,2.62,0,0,1,114.47,62.85Z"/><path class="cls-1" d="M112,61.52c-.32-.18-.29-.36.08-.42a2.27,2.27,0,0,1,1.26.22c.33.18.29.37-.08.42A2.46,2.46,0,0,1,112,61.52Z"/><path class="cls-1" d="M109.39,60.07c-.34-.2-.31-.4.06-.46a2.27,2.27,0,0,1,1.28.25c.33.2.3.4-.07.46A2.31,2.31,0,0,1,109.39,60.07Z"/><path class="cls-1" d="M106.77,58.5c-.34-.21-.3-.43.07-.49a2.1,2.1,0,0,1,1.29.28c.34.2.3.42-.07.48A2.18,2.18,0,0,1,106.77,58.5Z"/><path class="cls-1" d="M104.15,56.82c-.34-.22-.32-.46.06-.52a2.13,2.13,0,0,1,1.31.3c.34.22.31.46-.07.51A2.15,2.15,0,0,1,104.15,56.82Z"/><path class="cls-1" d="M101.5,55c-.35-.23-.32-.49.07-.55a2,2,0,0,1,1.32.33c.35.23.32.49-.06.55A2.07,2.07,0,0,1,101.5,55Z"/><path class="cls-1" d="M98.85,53.16c-.36-.25-.33-.51.06-.59a2.06,2.06,0,0,1,1.34.35c.35.25.32.51-.07.59A2,2,0,0,1,98.85,53.16Z"/><path class="cls-1" d="M96.18,51.21c-.35-.28-.32-.55.07-.63a2.07,2.07,0,0,1,1.35.36c.35.27.32.55-.06.62A2.07,2.07,0,0,1,96.18,51.21Z"/><path class="cls-1" d="M93.39,49.19c-.42-.34-.39-.67.07-.76a2.3,2.3,0,0,1,1.61.44c.43.34.39.67-.07.76A2.31,2.31,0,0,1,93.39,49.19Z"/><path class="cls-1" d="M90.71,47.09c-.43-.34-.4-.71.08-.8a2.32,2.32,0,0,1,1.64.46c.44.35.4.71-.07.8A2.33,2.33,0,0,1,90.71,47.09Z"/><path class="cls-1" d="M88.2,44.9c-.37-.29-.35-.6,0-.69a1.9,1.9,0,0,1,1.38.4c.37.3.34.61-.06.69A1.87,1.87,0,0,1,88.2,44.9Z"/><path class="cls-1" d="M85.54,42.7c-.37-.31-.34-.63.06-.71a1.93,1.93,0,0,1,1.39.4c.36.31.33.63-.07.72A1.92,1.92,0,0,1,85.54,42.7Z"/><path class="cls-1" d="M82.89,40.46c-.37-.32-.34-.64.06-.73a1.88,1.88,0,0,1,1.4.41c.37.32.34.65-.07.73A1.9,1.9,0,0,1,82.89,40.46Z"/><path class="cls-1" d="M80.26,38.2c-.37-.32-.35-.66.06-.75a1.83,1.83,0,0,1,1.4.42c.37.31.34.66-.07.74A1.8,1.8,0,0,1,80.26,38.2Z"/><path class="cls-1" d="M77.64,35.92c-.37-.32-.34-.65.07-.75a1.79,1.79,0,0,1,1.4.41c.37.33.34.67-.07.76A1.79,1.79,0,0,1,77.64,35.92Z"/><path class="cls-1" d="M75,33.64c-.37-.32-.34-.66.07-.76a1.81,1.81,0,0,1,1.41.42c.37.32.34.66-.07.75A1.77,1.77,0,0,1,75,33.64Z"/><path class="cls-1" d="M72.47,31.38c-.36-.32-.33-.67.08-.77A1.76,1.76,0,0,1,74,31c.36.32.33.66-.08.75A1.72,1.72,0,0,1,72.47,31.38Z"/><path class="cls-1" d="M69.92,29.13c-.36-.33-.33-.67.08-.78a1.79,1.79,0,0,1,1.41.4c.36.32.32.67-.09.78A1.82,1.82,0,0,1,69.92,29.13Z"/><path class="cls-1" d="M67.41,26.91c-.37-.31-.32-.66.09-.77a1.7,1.7,0,0,1,1.39.38c.36.32.32.66-.09.77A1.72,1.72,0,0,1,67.41,26.91Z"/><path class="cls-1" d="M64.92,24.73c-.35-.31-.31-.65.1-.76a1.69,1.69,0,0,1,1.38.36c.36.32.31.66-.1.76A1.7,1.7,0,0,1,64.92,24.73Z"/><path class="cls-1" d="M62.47,22.6c-.35-.29-.3-.64.1-.75A1.7,1.7,0,0,1,64,22.2c.35.3.3.64-.11.75A1.68,1.68,0,0,1,62.47,22.6Z"/><path class="cls-1" d="M60.06,20.54c-.35-.29-.3-.62.11-.74a1.67,1.67,0,0,1,1.37.32c.35.29.3.63-.11.74A1.63,1.63,0,0,1,60.06,20.54Z"/><path class="cls-1" d="M57.69,18.55c-.34-.29-.29-.61.12-.73a1.63,1.63,0,0,1,1.36.3c.34.28.28.61-.13.73A1.66,1.66,0,0,1,57.69,18.55Z"/><path class="cls-1" d="M55.35,16.64c-.33-.27-.27-.6.13-.71a1.64,1.64,0,0,1,1.36.27c.34.27.28.59-.14.71A1.68,1.68,0,0,1,55.35,16.64Z"/><path class="cls-1" d="M53.07,14.82c-.33-.26-.26-.57.14-.69a1.66,1.66,0,0,1,1.34.24c.32.26.26.57-.15.69A1.68,1.68,0,0,1,53.07,14.82Z"/><path class="cls-1" d="M50.84,13.09c-.32-.24-.25-.53.15-.66a1.59,1.59,0,0,1,1.3.21c.32.25.25.54-.15.67A1.64,1.64,0,0,1,50.84,13.09Z"/><path class="cls-1" d="M48.65,11.47c-.31-.22-.24-.5.16-.62a1.58,1.58,0,0,1,1.28.17c.31.22.24.51-.16.64A1.66,1.66,0,0,1,48.65,11.47Z"/><path class="cls-1" d="M46.51,10c-.3-.2-.22-.47.17-.59a1.62,1.62,0,0,1,1.25.13c.3.21.22.47-.17.6A1.58,1.58,0,0,1,46.51,10Z"/><path class="cls-1" d="M44.42,8.59c-.29-.18-.21-.43.18-.57a1.76,1.76,0,0,1,1.23.11c.29.19.21.44-.18.57A1.71,1.71,0,0,1,44.42,8.59Z"/><path class="cls-1" d="M42.39,7.33c-.28-.16-.19-.39.19-.51a1.63,1.63,0,0,1,1.18.06c.28.17.19.4-.18.53A1.76,1.76,0,0,1,42.39,7.33Z"/><path class="cls-1" d="M40.4,6.21c-.26-.14-.17-.35.2-.48a1.66,1.66,0,0,1,1.15,0c.27.14.18.36-.19.48A1.75,1.75,0,0,1,40.4,6.21Z"/><path class="cls-1" d="M38.47,5.23c-.25-.12-.16-.32.2-.43a1.72,1.72,0,0,1,1.12,0c.26.12.17.32-.2.44A1.78,1.78,0,0,1,38.47,5.23Z"/><path class="cls-1" d="M36.59,4.4c-.24-.1-.15-.27.21-.4a1.87,1.87,0,0,1,1.09,0c.24.1.14.27-.21.4A1.87,1.87,0,0,1,36.59,4.4Z"/><path class="cls-1" d="M34.68,3.74c-.26-.09-.15-.27.24-.4a2.21,2.21,0,0,1,1.19-.1c.26.1.16.28-.24.41A2.29,2.29,0,0,1,34.68,3.74Z"/><path class="cls-1" d="M33,3.17c-.21-.06-.12-.2.22-.31a2,2,0,0,1,1-.11c.22.06.12.19-.22.31A2.3,2.3,0,0,1,33,3.17Z"/><path class="cls-1" d="M31.22,2.8c-.21,0-.11-.16.24-.29a2.63,2.63,0,0,1,1-.15c.21,0,.11.17-.24.29A2.61,2.61,0,0,1,31.22,2.8Z"/><path class="cls-1" d="M29.58,2.57c-.2,0-.1-.13.23-.24a3.24,3.24,0,0,1,1-.18c.2,0,.09.12-.23.24A3.3,3.3,0,0,1,29.58,2.57Z"/><path class="cls-1" d="M28,2.48c-.18,0-.08-.07.21-.18a3.44,3.44,0,0,1,.84-.19c.17,0,.08.08-.22.18A2.9,2.9,0,0,1,28,2.48Z"/><path class="cls-1" d="M26.43,2.57c-.16,0-.07,0,.21-.14a4.73,4.73,0,0,1,.79-.21c.15,0,.06,0-.22.14A5.89,5.89,0,0,1,26.43,2.57Z"/><path class="cls-1" d="M24.73,2.87c-.19,0-.07,0,.29-.14s.8-.26,1-.3.07,0-.29.14A8.31,8.31,0,0,1,24.73,2.87Z"/><path class="cls-1" d="M23.35,3.25c-.16,0-.06,0,.23-.09l.82-.28L24.15,3Z"/><path class="cls-1" d="M22,3.78c-.12.06,0,0,.19,0l.63-.24c.11,0,0,0-.2,0S22.12,3.73,22,3.78Z"/><path class="cls-1" d="M20.6,4.51c-.11.06,0,.06.19,0a3.63,3.63,0,0,0,.57-.25c.11-.06,0,0-.18,0A4.32,4.32,0,0,0,20.6,4.51Z"/><path class="cls-1" d="M19.29,5.37c-.08.06,0,.06.15,0a2.68,2.68,0,0,0,.47-.21c.08-.06,0-.06-.16,0A3.36,3.36,0,0,0,19.29,5.37Z"/><path class="cls-1" d="M18,6.41c-.08.06,0,.07.15,0a1.69,1.69,0,0,0,.43-.23c.08-.06,0-.07-.15,0A1.56,1.56,0,0,0,18,6.41Z"/><path class="cls-1" d="M16.72,7.57c-.06.06,0,.07.11,0a1.11,1.11,0,0,0,.33-.18c.06-.06,0-.07-.11,0A.84.84,0,0,0,16.72,7.57Z"/><path class="cls-1" d="M15.49,8.89s0,.06.09,0a.62.62,0,0,0,.24-.15s0,0-.08,0A.74.74,0,0,0,15.49,8.89Z"/><path class="cls-1" d="M14.35,10.34s0,0,0,0l.09-.06s0,0,0,0A.32.32,0,0,0,14.35,10.34Z"/><path class="cls-1" d="M176.6,23.46s0,0,0,0,0,0,.06-.06,0,0,0,0S176.61,23.43,176.6,23.46Z"/><path class="cls-1" d="M175.23,26.39c0,.05,0,.09,0,.07s.1-.05.13-.1,0-.09-.05-.07A.17.17,0,0,0,175.23,26.39Z"/><path class="cls-1" d="M173.84,29.29c0,.07,0,.11.07.1a.27.27,0,0,0,.18-.15c0-.07,0-.12-.07-.11A.39.39,0,0,0,173.84,29.29Z"/><path class="cls-1" d="M172.43,32.13c0,.09,0,.15.09.14a.34.34,0,0,0,.24-.2c.06-.09,0-.16-.08-.14A.44.44,0,0,0,172.43,32.13Z"/><path class="cls-1" d="M171,34.91c-.06.12,0,.2.1.18a.49.49,0,0,0,.31-.24c.06-.11,0-.19-.1-.17A.46.46,0,0,0,171,34.91Z"/><path class="cls-1" d="M169.54,37.64c-.07.14,0,.24.13.21a.59.59,0,0,0,.39-.28c.08-.14,0-.24-.13-.22A.63.63,0,0,0,169.54,37.64Z"/><path class="cls-1" d="M168.08,40.3c-.1.14,0,.24.14.22a.64.64,0,0,0,.43-.31c.08-.15,0-.25-.14-.23A.64.64,0,0,0,168.08,40.3Z"/><path class="cls-1" d="M166.57,42.86c-.1.16,0,.28.16.25a.75.75,0,0,0,.49-.33c.09-.16,0-.27-.16-.24A.74.74,0,0,0,166.57,42.86Z"/><path class="cls-1" d="M165,45.35c-.1.18,0,.3.17.27a.87.87,0,0,0,.56-.36c.1-.17,0-.29-.16-.26A.86.86,0,0,0,165,45.35Z"/><path class="cls-1" d="M163.47,47.75c-.12.18,0,.3.18.27a1,1,0,0,0,.62-.37c.11-.19,0-.31-.18-.29A1,1,0,0,0,163.47,47.75Z"/><path class="cls-1" d="M161.87,50c-.14.19-.05.31.19.29a1.19,1.19,0,0,0,.68-.4c.13-.19,0-.32-.2-.29A1.08,1.08,0,0,0,161.87,50Z"/><path class="cls-1" d="M160.23,52.22c-.15.19-.06.32.2.29a1.26,1.26,0,0,0,.75-.4c.14-.19,0-.33-.21-.3A1.22,1.22,0,0,0,160.23,52.22Z"/><path class="cls-1" d="M158.55,54.29c-.16.19-.06.33.22.3a1.47,1.47,0,0,0,.8-.41c.16-.2.06-.33-.22-.31A1.39,1.39,0,0,0,158.55,54.29Z"/><path class="cls-1" d="M156.85,56.23c-.17.19-.07.33.22.29a1.5,1.5,0,0,0,.84-.39c.18-.2.08-.33-.21-.3A1.47,1.47,0,0,0,156.85,56.23Z"/><path class="cls-1" d="M155.11,58.06c-.19.19-.1.31.21.28a1.69,1.69,0,0,0,.9-.4c.19-.18.09-.32-.22-.28A1.56,1.56,0,0,0,155.11,58.06Z"/><path class="cls-1" d="M153.32,59.75c-.2.18-.11.3.22.27a1.77,1.77,0,0,0,1-.39c.2-.18.1-.3-.23-.27A1.78,1.78,0,0,0,153.32,59.75Z"/><path class="cls-1" d="M151.51,61.3c-.21.17-.12.28.21.25a2.15,2.15,0,0,0,1-.35c.21-.18.11-.29-.22-.26A1.83,1.83,0,0,0,151.51,61.3Z"/><path class="cls-1" d="M149.62,62.71c-.22.16-.12.27.23.24a2.37,2.37,0,0,0,1-.34c.22-.17.13-.27-.21-.24A2.5,2.5,0,0,0,149.62,62.71Z"/><path class="cls-1" d="M147.71,64c-.25.15-.15.24.21.21a2.79,2.79,0,0,0,1.1-.32c.24-.15.14-.25-.23-.21A2.64,2.64,0,0,0,147.71,64Z"/><path class="cls-1" d="M145.73,65.1c-.25.13-.15.22.23.19a3.23,3.23,0,0,0,1.15-.3c.26-.14.15-.22-.22-.19A3.52,3.52,0,0,0,145.73,65.1Z"/><path class="cls-1" d="M143.72,66.07c-.27.12-.17.19.22.16a4.58,4.58,0,0,0,1.22-.27c.27-.12.17-.2-.22-.16A4.15,4.15,0,0,0,143.72,66.07Z"/><path class="cls-1" d="M141.7,66.88c-.28.1-.18.15.21.12a5.09,5.09,0,0,0,1.22-.23c.27-.1.18-.16-.22-.12A5.1,5.1,0,0,0,141.7,66.88Z"/><path class="cls-1" d="M139.61,67.54c-.29.08-.2.11.2.09a9.27,9.27,0,0,0,1.26-.2c.29-.08.2-.13-.2-.09A7.93,7.93,0,0,0,139.61,67.54Z"/><path class="cls-1" d="M137.48,68c-.31.06-.21.08.2,0a12.75,12.75,0,0,0,1.29-.17c.31,0,.22-.08-.2,0S137.78,68,137.48,68Z"/><path class="cls-1" d="M135.29,68.38c-.31,0-.22,0,.2,0s1-.09,1.35-.13.22,0-.2,0S135.62,68.34,135.29,68.38Z"/><path class="cls-1" d="M133.08,68.56c-.33,0-.24,0,.19,0l1.37-.08c.33,0,.24,0-.18,0Z"/><path class="cls-1" d="M130.81,68.58c-.34,0-.26,0,.19-.09s1.07,0,1.41,0,.26,0-.18.08S131.16,68.59,130.81,68.58Z"/><path class="cls-1" d="M128.51,68.44c-.36,0-.28-.09.17-.13a14.37,14.37,0,0,1,1.46,0c.36,0,.28.1-.18.13A10.09,10.09,0,0,1,128.51,68.44Z"/><path class="cls-1" d="M126.16,68.14c-.37,0-.31-.14.16-.18a9.36,9.36,0,0,1,1.52,0c.37.07.29.14-.17.18A6.76,6.76,0,0,1,126.16,68.14Z"/><path class="cls-1" d="M123.77,67.69c-.39-.08-.32-.19.16-.23a6.07,6.07,0,0,1,1.56.09c.39.08.32.18-.16.22A6.07,6.07,0,0,1,123.77,67.69Z"/><path class="cls-1" d="M121.35,67.09c-.41-.11-.34-.25.14-.29a5.23,5.23,0,0,1,1.61.14c.41.11.33.23-.15.28A5.18,5.18,0,0,1,121.35,67.09Z"/><path class="cls-1" d="M118.88,66.34c-.42-.15-.35-.3.15-.35a4.77,4.77,0,0,1,1.66.18c.41.14.36.29-.15.34A5,5,0,0,1,118.88,66.34Z"/><path class="cls-1" d="M116.39,65.44c-.43-.17-.37-.35.14-.4a4.43,4.43,0,0,1,1.71.22c.42.17.36.34-.14.4A4.57,4.57,0,0,1,116.39,65.44Z"/><path class="cls-1" d="M113.87,64.4c-.45-.2-.39-.4.13-.46a4.26,4.26,0,0,1,1.75.26c.44.2.39.41-.13.46A4.26,4.26,0,0,1,113.87,64.4Z"/><path class="cls-1" d="M111.32,63.22c-.47-.22-.41-.45.12-.52a3.88,3.88,0,0,1,1.79.31c.46.23.41.46-.12.52A3.73,3.73,0,0,1,111.32,63.22Z"/><path class="cls-1" d="M108.74,61.92c-.47-.26-.43-.52.12-.58a3.65,3.65,0,0,1,1.84.35c.48.26.42.51-.12.57A3.65,3.65,0,0,1,108.74,61.92Z"/><path class="cls-1" d="M106.24,60.48c-.44-.26-.4-.52.1-.58a3.17,3.17,0,0,1,1.7.36c.43.25.39.51-.1.57A3.24,3.24,0,0,1,106.24,60.48Z"/><path class="cls-1" d="M103.63,58.93c-.45-.27-.41-.55.09-.62a3,3,0,0,1,1.73.38c.44.28.4.56-.1.62A3,3,0,0,1,103.63,58.93Z"/><path class="cls-1" d="M101,57.27c-.46-.3-.42-.6.09-.67a3,3,0,0,1,1.75.42c.46.3.41.6-.1.68A3,3,0,0,1,101,57.27Z"/><path class="cls-1" d="M98.35,55.52c-.47-.32-.43-.65.08-.73a2.86,2.86,0,0,1,1.79.46c.47.32.43.64-.09.72A3,3,0,0,1,98.35,55.52Z"/><path class="cls-1" d="M95.7,53.67c-.48-.35-.44-.69.08-.77a2.81,2.81,0,0,1,1.81.47c.47.34.44.69-.09.77A2.83,2.83,0,0,1,95.7,53.67Z"/><path class="cls-1" d="M93,51.73c-.49-.36-.46-.73.07-.81a2.8,2.8,0,0,1,1.84.49c.49.37.45.74-.08.82A2.76,2.76,0,0,1,93,51.73Z"/><path class="cls-1" d="M90.36,49.72c-.49-.38-.46-.77.08-.87a2.8,2.8,0,0,1,1.87.54c.5.38.46.76-.07.86A2.83,2.83,0,0,1,90.36,49.72Z"/><path class="cls-1" d="M87.7,47.65c-.5-.4-.47-.81.07-.9a2.65,2.65,0,0,1,1.89.54c.5.4.47.8-.07.9A2.71,2.71,0,0,1,87.7,47.65Z"/><path class="cls-1" d="M85.09,45.51c-.48-.39-.45-.79.07-.89a2.49,2.49,0,0,1,1.81.52c.48.4.45.8-.07.9A2.55,2.55,0,0,1,85.09,45.51Z"/><path class="cls-1" d="M82.44,43.33c-.48-.4-.45-.81.07-.92a2.5,2.5,0,0,1,1.82.54c.48.4.45.82-.08.92A2.51,2.51,0,0,1,82.44,43.33Z"/><path class="cls-1" d="M79.8,41.12c-.48-.41-.45-.83.07-.94a2.41,2.41,0,0,1,1.82.54c.49.41.45.83-.07.94A2.45,2.45,0,0,1,79.8,41.12Z"/><path class="cls-1" d="M77.12,38.9c-.51-.44-.47-.9.08-1a2.51,2.51,0,0,1,1.93.57c.51.44.48.9-.08,1A2.59,2.59,0,0,1,77.12,38.9Z"/><path class="cls-1" d="M74.5,36.65c-.51-.44-.47-.91.09-1a2.53,2.53,0,0,1,1.94.57c.51.45.47.92-.09,1A2.5,2.5,0,0,1,74.5,36.65Z"/><path class="cls-1" d="M71.91,34.4c-.5-.44-.47-.92.1-1a2.46,2.46,0,0,1,1.94.56c.51.45.47.92-.1,1.06A2.49,2.49,0,0,1,71.91,34.4Z"/><path class="cls-1" d="M69.35,32.16c-.51-.44-.47-.92.09-1.06a2.42,2.42,0,0,1,2,.55c.5.45.46.92-.11,1.06A2.42,2.42,0,0,1,69.35,32.16Z"/><path class="cls-1" d="M66.8,29.94c-.51-.45-.46-.93.11-1.07a2.38,2.38,0,0,1,2,.54c.51.45.46.93-.11,1.07A2.4,2.4,0,0,1,66.8,29.94Z"/><path class="cls-1" d="M64.37,27.74c-.46-.41-.41-.86.11-1a2.23,2.23,0,0,1,1.79.47c.46.41.41.86-.11,1A2.22,2.22,0,0,1,64.37,27.74Z"/><path class="cls-1" d="M61.9,25.58c-.46-.4-.41-.84.11-1a2.19,2.19,0,0,1,1.78.45c.45.4.41.85-.12,1A2.13,2.13,0,0,1,61.9,25.58Z"/><path class="cls-1" d="M59.46,23.48c-.45-.39-.4-.82.12-1a2.15,2.15,0,0,1,1.76.42c.45.4.4.83-.12,1A2.08,2.08,0,0,1,59.46,23.48Z"/><path class="cls-1" d="M57.05,21.44c-.45-.37-.39-.81.13-1a2.1,2.1,0,0,1,1.76.4c.45.38.39.81-.14,1A2.08,2.08,0,0,1,57.05,21.44Z"/><path class="cls-1" d="M54.6,19.5c-.47-.39-.41-.86.16-1a2.25,2.25,0,0,1,1.9.4c.48.39.4.86-.16,1A2.29,2.29,0,0,1,54.6,19.5Z"/><path class="cls-1" d="M52.28,17.61c-.47-.37-.4-.83.17-1a2.22,2.22,0,0,1,1.88.36c.47.37.4.83-.17,1A2.25,2.25,0,0,1,52.28,17.61Z"/><path class="cls-1" d="M50,15.82c-.46-.37-.38-.81.18-1a2.24,2.24,0,0,1,1.87.32c.47.36.38.81-.19,1A2.27,2.27,0,0,1,50,15.82Z"/><path class="cls-1" d="M47.77,14.12c-.45-.34-.36-.77.2-1a2.2,2.2,0,0,1,1.84.26c.45.34.36.77-.2,1A2.27,2.27,0,0,1,47.77,14.12Z"/><path class="cls-1" d="M45.59,12.52c-.44-.32-.34-.73.22-.92a2.17,2.17,0,0,1,1.8.22c.43.31.34.72-.22.91A2.2,2.2,0,0,1,45.59,12.52Z"/><path class="cls-1" d="M43.46,11c-.42-.28-.33-.67.22-.87a2.22,2.22,0,0,1,1.78.16c.43.29.32.69-.23.88A2.2,2.2,0,0,1,43.46,11Z"/><path class="cls-1" d="M41.39,9.66c-.41-.26-.3-.62.24-.82A2.22,2.22,0,0,1,43.34,9c.41.26.31.63-.24.81A2.23,2.23,0,0,1,41.39,9.66Z"/><path class="cls-1" d="M39.37,8.42c-.38-.23-.28-.57.25-.76a2.24,2.24,0,0,1,1.66.06c.39.23.27.57-.25.76A2.29,2.29,0,0,1,39.37,8.42Z"/><path class="cls-1" d="M37.41,7.31c-.38-.19-.26-.51.25-.7a2.25,2.25,0,0,1,1.6,0c.38.19.26.51-.26.7A2.28,2.28,0,0,1,37.41,7.31Z"/><path class="cls-1" d="M35.49,6.33c-.35-.16-.23-.44.27-.63a2.32,2.32,0,0,1,1.53,0c.36.17.23.46-.26.64A2.28,2.28,0,0,1,35.49,6.33Z"/><path class="cls-1" d="M33.63,5.5c-.33-.13-.21-.39.27-.57a2.39,2.39,0,0,1,1.47-.1c.34.14.22.4-.27.58A2.37,2.37,0,0,1,33.63,5.5Z"/><path class="cls-1" d="M31.83,4.81c-.31-.1-.19-.33.28-.5a2.41,2.41,0,0,1,1.39-.14c.31.1.19.33-.27.51A2.52,2.52,0,0,1,31.83,4.81Z"/><path class="cls-1" d="M30.06,4.28c-.28-.08-.16-.27.29-.45a2.85,2.85,0,0,1,1.34-.19c.29.08.17.29-.28.46A2.73,2.73,0,0,1,30.06,4.28Z"/><path class="cls-1" d="M28.35,3.9c-.28,0-.15-.22.29-.4a3.14,3.14,0,0,1,1.29-.22c.28.05.15.23-.29.4A3.14,3.14,0,0,1,28.35,3.9Z"/><path class="cls-1" d="M26.66,3.68c-.27,0-.14-.17.3-.34a3.37,3.37,0,0,1,1.28-.28c.28,0,.14.18-.3.35A3.33,3.33,0,0,1,26.66,3.68Z"/><path class="cls-1" d="M25.06,3.61c-.25,0-.12-.13.29-.29A4.2,4.2,0,0,1,26.56,3c.25,0,.12.13-.3.3A4,4,0,0,1,25.06,3.61Z"/><path class="cls-1" d="M23.5,3.69c-.23,0-.09-.08.3-.23a5.1,5.1,0,0,1,1.13-.33c.23,0,.1.08-.3.23A5.1,5.1,0,0,1,23.5,3.69Z"/><path class="cls-1" d="M22,3.94c-.21.05-.08,0,.3-.19s.86-.31,1.08-.36.08,0-.3.19A9.62,9.62,0,0,1,22,3.94Z"/><path class="cls-1" d="M20.55,4.33c-.19.06-.07,0,.27-.13l1-.37c.19-.06.07,0-.27.14Z"/><path class="cls-1" d="M19.15,4.87c-.16.07,0,0,.26-.08s.68-.28.84-.36.05,0-.25.09Z"/><path class="cls-1" d="M17.77,5.58c-.14.09,0,.07.25,0a5.77,5.77,0,0,0,.77-.36c.15-.09,0-.06-.24.05A6.89,6.89,0,0,0,17.77,5.58Z"/><path class="cls-1" d="M16.49,6.43c-.11.07,0,.07.2,0a4.33,4.33,0,0,0,.61-.3c.12-.09,0-.08-.19,0A3.23,3.23,0,0,0,16.49,6.43Z"/><path class="cls-1" d="M15.2,7.43c-.1.08,0,.09.18,0a2.33,2.33,0,0,0,.53-.29c.09-.08,0-.08-.18,0A2.54,2.54,0,0,0,15.2,7.43Z"/><path class="cls-1" d="M14,8.59c-.08.06,0,.08.14,0a1.43,1.43,0,0,0,.41-.24c.07-.07,0-.08-.14,0A1.2,1.2,0,0,0,14,8.59Z"/><path class="cls-1" d="M12.82,9.86s0,.05.08,0a.63.63,0,0,0,.2-.13s0,0-.07,0A.69.69,0,0,0,12.82,9.86Z"/><path class="cls-1" d="M11.63,11.3s0,0,0,0l.11-.08s0,0,0,0Z"/><polygon class="cls-1" points="10.46 12.89 10.48 12.89 10.51 12.87 10.5 12.86 10.46 12.89"/><rect class="cls-1" x="176.49" y="18.1" width="0.01" height="0.01" transform="translate(38.89 130.1) rotate(-45)"/><polygon class="cls-1" points="175.18 21.05 175.18 21.06 175.19 21.05 175.18 21.04 175.18 21.05"/><polygon class="cls-1" points="173.83 23.99 173.84 24.02 173.9 23.97 173.88 23.95 173.83 23.99"/><path class="cls-1" d="M172.45,26.9s0,.07.05.06a.23.23,0,0,0,.11-.09s0-.08-.05-.06A.14.14,0,0,0,172.45,26.9Z"/><path class="cls-1" d="M171.07,29.76c0,.06,0,.1.06.1a.31.31,0,0,0,.16-.14s0-.1-.06-.09A.23.23,0,0,0,171.07,29.76Z"/><path class="cls-1" d="M169.66,32.57c0,.09,0,.14.07.13a.31.31,0,0,0,.22-.17.08.08,0,0,0-.07-.13A.38.38,0,0,0,169.66,32.57Z"/><path class="cls-1" d="M168.22,35.34c0,.1,0,.17.09.16a.47.47,0,0,0,.28-.21c0-.1,0-.17-.09-.16A.44.44,0,0,0,168.22,35.34Z"/><path class="cls-1" d="M166.78,38c-.07.11,0,.19.1.18a.52.52,0,0,0,.33-.24c.06-.12,0-.2-.11-.18A.46.46,0,0,0,166.78,38Z"/><path class="cls-1" d="M165.29,40.66c-.06.13,0,.22.12.21a.6.6,0,0,0,.39-.27c.06-.13,0-.22-.13-.2A.66.66,0,0,0,165.29,40.66Z"/><path class="cls-1" d="M163.78,43.21c-.09.14,0,.24.14.23a.76.76,0,0,0,.44-.29c.08-.15,0-.25-.14-.23A.67.67,0,0,0,163.78,43.21Z"/><path class="cls-1" d="M162.24,45.67c-.11.16,0,.27.14.25a.76.76,0,0,0,.51-.31c.1-.16,0-.27-.15-.25A.69.69,0,0,0,162.24,45.67Z"/><path class="cls-1" d="M160.65,48.05c-.11.16,0,.28.17.26a.89.89,0,0,0,.58-.34c.12-.17,0-.29-.17-.27A.88.88,0,0,0,160.65,48.05Z"/><path class="cls-1" d="M159,50.31c-.13.18,0,.31.19.29a1,1,0,0,0,.64-.36c.13-.18,0-.31-.18-.29A1,1,0,0,0,159,50.31Z"/><path class="cls-1" d="M157.41,52.47c-.14.18-.06.31.19.29a1.08,1.08,0,0,0,.68-.36c.14-.18.05-.31-.19-.29A1.22,1.22,0,0,0,157.41,52.47Z"/><path class="cls-1" d="M155.72,54.52c-.15.19-.06.32.2.3a1.24,1.24,0,0,0,.75-.36c.16-.19.07-.32-.19-.3A1.24,1.24,0,0,0,155.72,54.52Z"/><path class="cls-1" d="M154,56.45c-.16.17-.08.3.18.28a1.28,1.28,0,0,0,.77-.35c.16-.17.08-.29-.19-.27A1.22,1.22,0,0,0,154,56.45Z"/><path class="cls-1" d="M152.28,58.25c-.18.18-.09.3.2.29a1.56,1.56,0,0,0,.82-.34c.17-.18.08-.3-.2-.28A1.41,1.41,0,0,0,152.28,58.25Z"/><path class="cls-1" d="M150.48,59.93c-.19.17-.1.29.2.27a1.6,1.6,0,0,0,.88-.33c.19-.16.09-.29-.2-.28A1.68,1.68,0,0,0,150.48,59.93Z"/><path class="cls-1" d="M148.6,61.48c-.22.16-.12.29.22.27a1.93,1.93,0,0,0,1-.34c.22-.17.11-.3-.23-.29A2.06,2.06,0,0,0,148.6,61.48Z"/><path class="cls-1" d="M146.72,62.87c-.23.16-.13.28.22.27a2.28,2.28,0,0,0,1.06-.32c.23-.16.12-.28-.23-.27A2.28,2.28,0,0,0,146.72,62.87Z"/><path class="cls-1" d="M144.8,64.13c-.25.16-.15.26.22.24a2.49,2.49,0,0,0,1.11-.3c.25-.14.14-.26-.22-.24A2.59,2.59,0,0,0,144.8,64.13Z"/><path class="cls-1" d="M142.82,65.25c-.26.13-.16.23.23.22a3.35,3.35,0,0,0,1.17-.28c.26-.14.15-.24-.23-.22A3.15,3.15,0,0,0,142.82,65.25Z"/><path class="cls-1" d="M140.81,66.21c-.28.12-.18.21.22.2a3.93,3.93,0,0,0,1.23-.26c.28-.12.18-.21-.23-.19A3.72,3.72,0,0,0,140.81,66.21Z"/><path class="cls-1" d="M138.76,67c-.29.11-.19.17.22.16a4.68,4.68,0,0,0,1.27-.21c.29-.1.19-.17-.22-.16A6.22,6.22,0,0,0,138.76,67Z"/><path class="cls-1" d="M136.66,67.67c-.31.08-.22.14.21.12a7.86,7.86,0,0,0,1.33-.17c.31-.09.21-.15-.22-.13A6.9,6.9,0,0,0,136.66,67.67Z"/><path class="cls-1" d="M134.52,68.16c-.33.07-.24.1.2.1a12.77,12.77,0,0,0,1.39-.14c.32-.06.22-.11-.21-.1A12.32,12.32,0,0,0,134.52,68.16Z"/><path class="cls-1" d="M132.33,68.51c-.34,0-.25,0,.2,0s1.1-.06,1.44-.1.25-.06-.2,0S132.67,68.47,132.33,68.51Z"/><path class="cls-1" d="M130.09,68.69c-.35,0-.26,0,.2,0l1.5-.06c.36,0,.27,0-.2,0Z"/><path class="cls-1" d="M127.83,68.72c-.38,0-.29,0,.18-.06s1.18,0,1.56,0,.29,0-.2,0S128.2,68.73,127.83,68.72Z"/><path class="cls-1" d="M125.51,68.59c-.39,0-.31-.09.18-.11a12.07,12.07,0,0,1,1.62,0c.39,0,.31.07-.2.09S125.89,68.62,125.51,68.59Z"/><path class="cls-1" d="M123.15,68.3c-.41-.06-.33-.14.18-.16a9.84,9.84,0,0,1,1.67.08c.42.06.34.14-.18.16A11,11,0,0,1,123.15,68.3Z"/><path class="cls-1" d="M120.76,67.86c-.42-.09-.34-.19.17-.22a7.81,7.81,0,0,1,1.72.13c.43.1.35.19-.16.21A8.6,8.6,0,0,1,120.76,67.86Z"/><path class="cls-1" d="M118.35,67.26c-.45-.12-.37-.24.15-.27a7,7,0,0,1,1.76.17c.45.13.37.25-.16.28A6.19,6.19,0,0,1,118.35,67.26Z"/><path class="cls-1" d="M115.9,66.53c-.45-.16-.39-.3.14-.33a5.53,5.53,0,0,1,1.8.22c.45.15.38.29-.15.33A6.37,6.37,0,0,1,115.9,66.53Z"/><path class="cls-1" d="M113.41,65.65c-.46-.18-.4-.36.14-.39a5,5,0,0,1,1.83.26c.47.18.41.35-.13.39A5.5,5.5,0,0,1,113.41,65.65Z"/><path class="cls-1" d="M110.9,64.62c-.48-.2-.42-.41.13-.45a4.62,4.62,0,0,1,1.86.32c.48.2.42.4-.14.44A4.8,4.8,0,0,1,110.9,64.62Z"/><path class="cls-1" d="M108.36,63.47c-.5-.24-.44-.46.11-.51a4.25,4.25,0,0,1,1.91.35c.49.24.43.47-.13.51A4.45,4.45,0,0,1,108.36,63.47Z"/><path class="cls-1" d="M105.79,62.19c-.5-.27-.46-.53.11-.58a4.18,4.18,0,0,1,1.94.4c.51.27.45.52-.12.57A4.42,4.42,0,0,1,105.79,62.19Z"/><path class="cls-1" d="M103.19,60.77c-.52-.29-.47-.57.11-.63a3.89,3.89,0,0,1,2,.44c.51.3.47.58-.12.64A4.07,4.07,0,0,1,103.19,60.77Z"/><path class="cls-1" d="M100.59,59.26c-.53-.32-.48-.63.1-.69a3.74,3.74,0,0,1,2,.47c.53.33.48.62-.1.69A3.93,3.93,0,0,1,100.59,59.26Z"/><path class="cls-1" d="M98,57.63c-.53-.34-.48-.68.1-.74a3.54,3.54,0,0,1,2,.5c.52.35.48.67-.1.74A3.75,3.75,0,0,1,98,57.63Z"/><path class="cls-1" d="M95.33,55.9c-.55-.37-.51-.73.09-.8a3.4,3.4,0,0,1,2.06.54c.54.37.5.72-.09.8A3.59,3.59,0,0,1,95.33,55.9Z"/><path class="cls-1" d="M92.68,54.08c-.56-.39-.52-.78.08-.86a3.42,3.42,0,0,1,2.1.57c.55.39.51.78-.09.86A3.51,3.51,0,0,1,92.68,54.08Z"/><path class="cls-1" d="M90,52.18c-.56-.42-.53-.83.07-.92a3.24,3.24,0,0,1,2.12.6c.56.41.52.82-.08.9A3.31,3.31,0,0,1,90,52.18Z"/><path class="cls-1" d="M87.36,50.2c-.57-.44-.53-.87.08-1a3.32,3.32,0,0,1,2.15.62c.57.44.53.87-.08,1A3.33,3.33,0,0,1,87.36,50.2Z"/><path class="cls-1" d="M84.71,48.16c-.57-.46-.54-.9.07-1a3.21,3.21,0,0,1,2.17.64c.57.45.54.91-.08,1A3.28,3.28,0,0,1,84.71,48.16Z"/><path class="cls-1" d="M82.1,46.05c-.56-.44-.52-.9.07-1a2.93,2.93,0,0,1,2.09.62c.56.46.53.91-.07,1A3,3,0,0,1,82.1,46.05Z"/><path class="cls-1" d="M79.46,43.91c-.56-.46-.53-.93.07-1a2.88,2.88,0,0,1,2.1.63c.56.47.53.94-.07,1A3,3,0,0,1,79.46,43.91Z"/><path class="cls-1" d="M76.83,41.74c-.56-.48-.53-1,.07-1.08a2.85,2.85,0,0,1,2.11.62c.56.48.53,1-.08,1.09A2.88,2.88,0,0,1,76.83,41.74Z"/><path class="cls-1" d="M74.21,39.54c-.56-.48-.53-1,.08-1.11a2.8,2.8,0,0,1,2.1.63c.57.48.53,1-.07,1.1A2.84,2.84,0,0,1,74.21,39.54Z"/><path class="cls-1" d="M71.61,37.33c-.56-.49-.52-1,.08-1.13a2.69,2.69,0,0,1,2.11.62c.56.49.52,1-.08,1.13A2.8,2.8,0,0,1,71.61,37.33Z"/><path class="cls-1" d="M69,35.11c-.56-.48-.52-1,.08-1.14a2.66,2.66,0,0,1,2.09.6c.56.49.52,1-.08,1.15A2.66,2.66,0,0,1,69,35.11Z"/><path class="cls-1" d="M66.47,32.91c-.55-.49-.51-1,.09-1.16a2.62,2.62,0,0,1,2.11.59c.56.49.52,1-.09,1.16A2.69,2.69,0,0,1,66.47,32.91Z"/><path class="cls-1" d="M63.94,30.72c-.55-.48-.51-1,.1-1.17a2.61,2.61,0,0,1,2.11.57c.55.49.51,1-.11,1.18A2.63,2.63,0,0,1,63.94,30.72Z"/><path class="cls-1" d="M61.45,28.56c-.54-.47-.49-1,.11-1.16a2.52,2.52,0,0,1,2.07.54c.54.47.5,1-.11,1.17A2.57,2.57,0,0,1,61.45,28.56Z"/><path class="cls-1" d="M59,26.45c-.54-.46-.49-1,.12-1.17a2.47,2.47,0,0,1,2.09.51c.54.47.49,1-.12,1.18A2.51,2.51,0,0,1,59,26.45Z"/><path class="cls-1" d="M56.54,24.38c-.53-.45-.48-1,.13-1.16a2.44,2.44,0,0,1,2.07.47c.54.47.48,1-.13,1.18A2.51,2.51,0,0,1,56.54,24.38Z"/><path class="cls-1" d="M54.15,22.38c-.53-.44-.47-1,.13-1.16a2.42,2.42,0,0,1,2.06.44c.53.45.47,1-.14,1.17A2.45,2.45,0,0,1,54.15,22.38Z"/><path class="cls-1" d="M51.79,20.44c-.52-.42-.45-.94.15-1.14a2.36,2.36,0,0,1,2,.4c.53.43.45.94-.15,1.14A2.43,2.43,0,0,1,51.79,20.44Z"/><path class="cls-1" d="M49.47,18.58c-.51-.4-.43-.91.17-1.12a2.42,2.42,0,0,1,2,.35c.52.43.44.93-.17,1.14A2.42,2.42,0,0,1,49.47,18.58Z"/><path class="cls-1" d="M47.2,16.81c-.5-.39-.42-.87.18-1.09a2.34,2.34,0,0,1,2,.3c.51.4.42.89-.18,1.1A2.35,2.35,0,0,1,47.2,16.81Z"/><path class="cls-1" d="M45,15.14c-.49-.36-.41-.84.19-1.07a2.35,2.35,0,0,1,2,.26c.5.37.41.85-.2,1.07A2.37,2.37,0,0,1,45,15.14Z"/><path class="cls-1" d="M42.8,13.56c-.47-.33-.38-.79.22-1a2.32,2.32,0,0,1,1.95.2c.49.34.39.81-.21,1A2.39,2.39,0,0,1,42.8,13.56Z"/><path class="cls-1" d="M40.68,12.11c-.46-.32-.37-.75.22-1a2.38,2.38,0,0,1,1.93.14c.47.32.36.77-.23,1A2.36,2.36,0,0,1,40.68,12.11Z"/><path class="cls-1" d="M38.6,10.77c-.45-.29-.34-.7.25-.94a2.37,2.37,0,0,1,1.89.08c.46.29.34.71-.25.95A2.41,2.41,0,0,1,38.6,10.77Z"/><path class="cls-1" d="M36.59,9.55c-.43-.26-.32-.65.26-.89a2.4,2.4,0,0,1,1.83,0c.43.25.32.65-.26.88A2.4,2.4,0,0,1,36.59,9.55Z"/><path class="cls-1" d="M34.63,8.45c-.41-.21-.3-.57.27-.82a2.36,2.36,0,0,1,1.77,0c.42.22.29.59-.27.82A2.46,2.46,0,0,1,34.63,8.45Z"/><path class="cls-1" d="M32.66,7.51c-.42-.18-.3-.54.29-.79a2.64,2.64,0,0,1,1.82-.1c.43.2.29.56-.29.81A2.57,2.57,0,0,1,32.66,7.51Z"/><path class="cls-1" d="M30.85,6.68c-.38-.15-.26-.46.29-.69a2.59,2.59,0,0,1,1.68-.16c.38.16.25.47-.3.71A2.61,2.61,0,0,1,30.85,6.68Z"/><path class="cls-1" d="M29,6c-.37-.12-.23-.41.31-.65A2.8,2.8,0,0,1,31,5.16c.38.13.23.42-.31.66A2.87,2.87,0,0,1,29,6Z"/><path class="cls-1" d="M27.25,5.49c-.35-.09-.21-.34.32-.58a3.07,3.07,0,0,1,1.6-.26c.36.09.22.36-.32.59A2.94,2.94,0,0,1,27.25,5.49Z"/><path class="cls-1" d="M25.58,5.11c-.32-.06-.18-.28.31-.5a3.2,3.2,0,0,1,1.49-.3c.32.05.18.28-.32.5A3.47,3.47,0,0,1,25.58,5.11Z"/><path class="cls-1" d="M23.9,4.89c-.32,0-.17-.22.32-.44a4,4,0,0,1,1.47-.36c.31,0,.17.23-.33.46A3.72,3.72,0,0,1,23.9,4.89Z"/><path class="cls-1" d="M22.3,4.82c-.29,0-.14-.16.33-.37A4.44,4.44,0,0,1,24,4.06c.29,0,.14.16-.33.37A4.44,4.44,0,0,1,22.3,4.82Z"/><path class="cls-1" d="M20.82,4.87c-.25,0-.11-.1.3-.28A5.16,5.16,0,0,1,22.3,4.2c.25,0,.12.1-.29.29A5.46,5.46,0,0,1,20.82,4.87Z"/><path class="cls-1" d="M19.34,5.09c-.21,0-.09,0,.29-.21a6.9,6.9,0,0,1,1.06-.39c.21,0,.09,0-.28.22A6.75,6.75,0,0,1,19.34,5.09Z"/><path class="cls-1" d="M17.9,5.48c-.19.06-.07,0,.27-.16s.77-.33,1-.39.07,0-.27.16S18.09,5.41,17.9,5.48Z"/><path class="cls-1" d="M16.49,6l.26-.11.86-.39-.25.12Z"/><path class="cls-1" d="M15.2,6.69c-.14.07,0,0,.2-.06l.67-.33c.13-.08,0,0-.2.06S15.32,6.62,15.2,6.69Z"/><path class="cls-1" d="M13.88,7.53c-.11.08,0,.06.18,0a3.47,3.47,0,0,0,.56-.3c.11-.07,0,0-.18,0A5.55,5.55,0,0,0,13.88,7.53Z"/><path class="cls-1" d="M12.6,8.53c-.09.07,0,.06.15,0a2.35,2.35,0,0,0,.46-.26c.09-.07,0-.07-.15,0A2.07,2.07,0,0,0,12.6,8.53Z"/><path class="cls-1" d="M11.36,9.67c-.07.06,0,.06.11,0a1.55,1.55,0,0,0,.35-.2c.07-.07,0-.07-.11,0A1.52,1.52,0,0,0,11.36,9.67Z"/><path class="cls-1" d="M10.15,11s0,.06.08,0a.62.62,0,0,0,.24-.15s0-.05-.09,0A1.14,1.14,0,0,0,10.15,11Z"/><path class="cls-1" d="M9,12.37s0,0,0,0a.48.48,0,0,0,.12-.08s0,0-.05,0A.38.38,0,0,0,9,12.37Z"/><polygon class="cls-1" points="7.83 13.93 7.83 13.93 7.84 13.93 7.83 13.92 7.83 13.93"/><rect class="cls-1" x="173.76" y="18.67" width="0.01" height="0.01" transform="translate(37.69 128.34) rotate(-45)"/><polygon class="cls-1" points="172.44 21.59 172.44 21.59 172.44 21.58 172.44 21.58 172.44 21.59"/><path class="cls-1" d="M171.07,24.49s0,.05,0,0,.06,0,.07-.05a0,0,0,0,0,0,0S171.07,24.46,171.07,24.49Z"/><path class="cls-1" d="M169.71,27.36s0,.05,0,.05.07,0,.09-.07,0-.06,0-.05A.13.13,0,0,0,169.71,27.36Z"/><path class="cls-1" d="M168.31,30.19s0,.08.05.08a.25.25,0,0,0,.14-.11c0-.05,0-.08-.05-.08A.25.25,0,0,0,168.31,30.19Z"/><path class="cls-1" d="M166.92,33c0,.06,0,.1.05.09a.24.24,0,0,0,.16-.11c0-.07,0-.11,0-.1A.24.24,0,0,0,166.92,33Z"/><path class="cls-1" d="M165.48,35.7c0,.08,0,.13.07.12a.31.31,0,0,0,.21-.16c0-.06,0-.12-.07-.12A.36.36,0,0,0,165.48,35.7Z"/><path class="cls-1" d="M164,38.36c0,.09,0,.14.08.13a.31.31,0,0,0,.24-.16c.05-.08,0-.15-.08-.13A.41.41,0,0,0,164,38.36Z"/><path class="cls-1" d="M162.58,41c-.05.09,0,.14.08.14a.38.38,0,0,0,.23-.16c.06-.08,0-.14-.07-.13A.38.38,0,0,0,162.58,41Z"/><path class="cls-1" d="M161.06,43.48c-.06.09,0,.17.09.16a.44.44,0,0,0,.3-.19c.07-.1,0-.18-.09-.16A.38.38,0,0,0,161.06,43.48Z"/><path class="cls-1" d="M159.5,45.91c-.08.11,0,.21.11.19a.56.56,0,0,0,.38-.22c.07-.12,0-.21-.11-.2A.53.53,0,0,0,159.5,45.91Z"/><path class="cls-1" d="M157.9,48.25c-.08.14,0,.23.14.22a.66.66,0,0,0,.44-.25c.09-.13,0-.23-.12-.23A.79.79,0,0,0,157.9,48.25Z"/><path class="cls-1" d="M156.34,50.49c-.09.12,0,.21.12.21a.69.69,0,0,0,.44-.24c.08-.11,0-.21-.13-.2A.63.63,0,0,0,156.34,50.49Z"/><path class="cls-1" d="M154.68,52.63c-.1.13,0,.23.13.22a.78.78,0,0,0,.51-.25c.1-.13,0-.23-.14-.22A.83.83,0,0,0,154.68,52.63Z"/><path class="cls-1" d="M153,54.66c-.12.13-.05.25.15.23a.87.87,0,0,0,.56-.26c.12-.14.05-.25-.15-.23A.82.82,0,0,0,153,54.66Z"/><path class="cls-1" d="M151.33,56.57c-.1.11-.05.2.13.19a.8.8,0,0,0,.52-.22c.1-.11,0-.2-.13-.19A.83.83,0,0,0,151.33,56.57Z"/><path class="cls-1" d="M149.55,58.35c-.13.12-.07.22.15.22a1,1,0,0,0,.59-.24c.13-.12.06-.22-.14-.21A1.07,1.07,0,0,0,149.55,58.35Z"/><path class="cls-1" d="M147.73,60c-.14.13-.08.23.16.23a1.28,1.28,0,0,0,.67-.24c.15-.13.08-.23-.15-.23A1.16,1.16,0,0,0,147.73,60Z"/><path class="cls-1" d="M145.87,61.53c-.17.13-.09.24.16.23a1.32,1.32,0,0,0,.76-.24c.17-.13.1-.23-.16-.23A1.52,1.52,0,0,0,145.87,61.53Z"/><path class="cls-1" d="M144,62.92c-.18.13-.11.23.18.23a1.63,1.63,0,0,0,.85-.24c.18-.13.11-.23-.18-.23A1.73,1.73,0,0,0,144,62.92Z"/><path class="cls-1" d="M142,64.17c-.2.12-.12.23.19.23a2.16,2.16,0,0,0,.93-.23c.21-.13.13-.23-.19-.23A2.09,2.09,0,0,0,142,64.17Z"/><path class="cls-1" d="M140.08,65.27c-.21.1-.13.2.17.2a2.27,2.27,0,0,0,.92-.2c.21-.11.14-.2-.17-.2A2.31,2.31,0,0,0,140.08,65.27Z"/><path class="cls-1" d="M138.05,66.22c-.23.1-.15.19.18.19a3,3,0,0,0,1-.18c.22-.1.14-.19-.18-.19A3,3,0,0,0,138.05,66.22Z"/><path class="cls-1" d="M136,67c-.23.08-.15.15.17.16a3.36,3.36,0,0,0,1-.15c.24-.08.16-.15-.17-.15A3.85,3.85,0,0,0,136,67Z"/><path class="cls-1" d="M133.9,67.67c-.25.07-.17.13.17.13a4.35,4.35,0,0,0,1.08-.12c.25-.07.17-.12-.17-.12A5,5,0,0,0,133.9,67.67Z"/><path class="cls-1" d="M131.75,68.17c-.27,0-.2.1.17.1a6.43,6.43,0,0,0,1.14-.09c.28-.05.19-.09-.17-.1A7.64,7.64,0,0,0,131.75,68.17Z"/><path class="cls-1" d="M129.55,68.51c-.29,0-.21.07.17.07a8.89,8.89,0,0,0,1.21-.06c.29,0,.21-.06-.17-.07A11,11,0,0,0,129.55,68.51Z"/><path class="cls-1" d="M127.31,68.7c-.31,0-.24,0,.17,0s1,0,1.28,0,.23,0-.16,0S127.62,68.69,127.31,68.7Z"/><path class="cls-1" d="M125,68.73c-.32,0-.25,0,.17,0h1.34c.32,0,.25,0-.17,0Z"/><path class="cls-1" d="M122.69,68.6c-.36,0-.29-.06.16-.06s1.11,0,1.46.07.28,0-.17,0S123,68.63,122.69,68.6Z"/><path class="cls-1" d="M120.55,68.32c-.28,0-.23-.07.12-.07a9.93,9.93,0,0,1,1.13.07c.27.05.22.08-.12.08A7.69,7.69,0,0,1,120.55,68.32Z"/><path class="cls-1" d="M118,67.89c-.38-.08-.32-.14.15-.15a8.43,8.43,0,0,1,1.56.15c.39.08.32.15-.15.15A8.34,8.34,0,0,1,118,67.89Z"/><path class="cls-1" d="M115.53,67.32c-.4-.1-.34-.2.15-.21a6.32,6.32,0,0,1,1.6.19c.4.11.34.2-.14.21A7.4,7.4,0,0,1,115.53,67.32Z"/><path class="cls-1" d="M113.07,66.6c-.43-.14-.37-.26.13-.27a6,6,0,0,1,1.67.24c.43.13.36.25-.13.26A6,6,0,0,1,113.07,66.6Z"/><path class="cls-1" d="M110.59,65.73c-.45-.16-.39-.3.12-.32a5.13,5.13,0,0,1,1.72.28c.44.17.38.31-.14.32A5.27,5.27,0,0,1,110.59,65.73Z"/><path class="cls-1" d="M108.06,64.73c-.46-.19-.41-.36.12-.38a4.88,4.88,0,0,1,1.78.32c.46.2.4.37-.13.38A4.75,4.75,0,0,1,108.06,64.73Z"/><path class="cls-1" d="M105.52,63.61c-.48-.23-.43-.43.11-.46a4.52,4.52,0,0,1,1.82.37c.48.22.43.42-.11.45A4.84,4.84,0,0,1,105.52,63.61Z"/><path class="cls-1" d="M102.94,62.35c-.49-.26-.44-.48.1-.52a4.56,4.56,0,0,1,1.89.41c.5.26.44.49-.11.51A4.39,4.39,0,0,1,102.94,62.35Z"/><path class="cls-1" d="M100.33,61c-.52-.29-.48-.56.09-.59a4.21,4.21,0,0,1,2,.46c.52.29.47.56-.1.59A4.15,4.15,0,0,1,100.33,61Z"/><path class="cls-1" d="M97.74,59.47c-.52-.3-.49-.59.09-.64a4,4,0,0,1,2,.49c.52.32.48.61-.1.65A3.91,3.91,0,0,1,97.74,59.47Z"/><path class="cls-1" d="M95.12,57.88c-.53-.33-.5-.65.08-.71a3.77,3.77,0,0,1,2,.53c.53.34.49.66-.09.71A3.89,3.89,0,0,1,95.12,57.88Z"/><path class="cls-1" d="M92.49,56.19c-.55-.36-.51-.71.07-.77a3.65,3.65,0,0,1,2.06.56c.55.36.51.7-.08.76A3.77,3.77,0,0,1,92.49,56.19Z"/><path class="cls-1" d="M89.85,54.4c-.56-.38-.53-.75.07-.83a3.59,3.59,0,0,1,2.08.59c.56.39.53.77-.07.83A3.59,3.59,0,0,1,89.85,54.4Z"/><path class="cls-1" d="M87.2,52.53c-.56-.4-.53-.8.06-.88a3.43,3.43,0,0,1,2.12.61c.57.41.54.81-.07.88A3.44,3.44,0,0,1,87.2,52.53Z"/><path class="cls-1" d="M84.56,50.6c-.58-.43-.55-.85.06-.94a3.39,3.39,0,0,1,2.13.63c.57.43.55.85-.06.93A3.43,3.43,0,0,1,84.56,50.6Z"/><path class="cls-1" d="M81.91,48.59c-.58-.45-.56-.89,0-1a3.27,3.27,0,0,1,2.17.65c.58.45.55.89-.07,1A3.28,3.28,0,0,1,81.91,48.59Z"/><path class="cls-1" d="M79.27,46.53c-.58-.45-.56-.91,0-1a3.12,3.12,0,0,1,2.17.65c.58.47.55.93-.06,1A3.21,3.21,0,0,1,79.27,46.53Z"/><path class="cls-1" d="M76.65,44.44c-.59-.48-.56-.95,0-1.07a3.1,3.1,0,0,1,2.17.65c.58.48.55,1-.07,1.07A3.13,3.13,0,0,1,76.65,44.44Z"/><path class="cls-1" d="M74,42.31c-.59-.49-.56-1,0-1.11a3,3,0,0,1,2.18.65c.59.49.56,1-.06,1.11A3.12,3.12,0,0,1,74,42.31Z"/><path class="cls-1" d="M71.41,40.14c-.59-.49-.56-1,.06-1.13a2.91,2.91,0,0,1,2.19.65c.58.5.55,1-.07,1.13A2.93,2.93,0,0,1,71.41,40.14Z"/><path class="cls-1" d="M68.82,38c-.59-.5-.57-1,.06-1.17a2.89,2.89,0,0,1,2.2.64c.58.51.55,1-.07,1.17A2.92,2.92,0,0,1,68.82,38Z"/><path class="cls-1" d="M66.24,35.81c-.6-.5-.57-1,.06-1.2a2.81,2.81,0,0,1,2.23.62c.59.53.56,1.06-.08,1.22A2.89,2.89,0,0,1,66.24,35.81Z"/><path class="cls-1" d="M63.69,33.65c-.59-.5-.56-1,.07-1.23A2.77,2.77,0,0,1,66,33c.59.52.56,1.06-.08,1.24A2.87,2.87,0,0,1,63.69,33.65Z"/><path class="cls-1" d="M61.17,31.5c-.59-.49-.55-1.05.07-1.23a2.7,2.7,0,0,1,2.22.58c.59.51.55,1.07-.08,1.25A2.73,2.73,0,0,1,61.17,31.5Z"/><path class="cls-1" d="M58.68,29.39c-.58-.49-.54-1.05.08-1.24a2.63,2.63,0,0,1,2.21.56c.59.5.55,1.05-.09,1.24A2.65,2.65,0,0,1,58.68,29.39Z"/><path class="cls-1" d="M56.23,27.31c-.58-.48-.53-1,.09-1.24a2.57,2.57,0,0,1,2.19.53c.58.49.53,1-.1,1.24A2.57,2.57,0,0,1,56.23,27.31Z"/><path class="cls-1" d="M53.8,25.29c-.57-.48-.52-1,.11-1.25a2.55,2.55,0,0,1,2.18.49c.57.48.52,1-.12,1.25A2.56,2.56,0,0,1,53.8,25.29Z"/><path class="cls-1" d="M51.41,23.32c-.56-.46-.51-1,.12-1.24a2.5,2.5,0,0,1,2.17.45c.56.47.51,1-.12,1.24A2.53,2.53,0,0,1,51.41,23.32Z"/><path class="cls-1" d="M49.07,21.42c-.55-.44-.49-1,.13-1.21a2.4,2.4,0,0,1,2.15.39c.56.44.49,1-.14,1.22A2.48,2.48,0,0,1,49.07,21.42Z"/><path class="cls-1" d="M46.76,19.6c-.54-.42-.48-1,.15-1.2a2.42,2.42,0,0,1,2.13.34c.55.44.48,1-.15,1.21A2.43,2.43,0,0,1,46.76,19.6Z"/><path class="cls-1" d="M44.5,17.86c-.53-.4-.46-.93.17-1.17a2.37,2.37,0,0,1,2.1.29c.55.41.47.94-.16,1.18A2.43,2.43,0,0,1,44.5,17.86Z"/><path class="cls-1" d="M42.28,16.22c-.52-.38-.44-.89.18-1.16a2.46,2.46,0,0,1,2.1.25c.53.38.44.9-.19,1.16A2.44,2.44,0,0,1,42.28,16.22Z"/><path class="cls-1" d="M40.13,14.68c-.51-.35-.42-.84.19-1.11a2.4,2.4,0,0,1,2,.17c.51.36.41.87-.2,1.12A2.38,2.38,0,0,1,40.13,14.68Z"/><path class="cls-1" d="M38,13.25c-.5-.32-.41-.81.21-1.07a2.37,2.37,0,0,1,2,.11c.5.33.4.81-.22,1.08A2.38,2.38,0,0,1,38,13.25Z"/><path class="cls-1" d="M35.94,11.93c-.48-.29-.39-.74.22-1a2.37,2.37,0,0,1,2,0c.49.31.38.78-.23,1A2.38,2.38,0,0,1,35.94,11.93Z"/><path class="cls-1" d="M33.92,10.74c-.47-.26-.36-.69.24-1a2.45,2.45,0,0,1,2,0c.47.27.35.71-.25,1A2.38,2.38,0,0,1,33.92,10.74Z"/><path class="cls-1" d="M32.14,9.59c-.38-.19-.28-.53.21-.77a2.08,2.08,0,0,1,1.58-.06c.38.2.28.53-.22.76A2.1,2.1,0,0,1,32.14,9.59Z"/><path class="cls-1" d="M30.07,8.73c-.41-.19-.29-.56.27-.83a2.38,2.38,0,0,1,1.79-.14c.43.19.3.56-.27.83A2.52,2.52,0,0,1,30.07,8.73Z"/><path class="cls-1" d="M28.23,7.92c-.4-.15-.28-.49.27-.76A2.57,2.57,0,0,1,30.22,7c.4.16.27.5-.28.77A2.64,2.64,0,0,1,28.23,7.92Z"/><path class="cls-1" d="M26.43,7.26c-.38-.12-.25-.43.28-.69a2.69,2.69,0,0,1,1.65-.25c.38.12.25.43-.29.68A2.66,2.66,0,0,1,26.43,7.26Z"/><path class="cls-1" d="M24.68,6.74c-.35-.08-.22-.36.29-.61a2.81,2.81,0,0,1,1.58-.31c.36.1.22.37-.29.62A3,3,0,0,1,24.68,6.74Z"/><path class="cls-1" d="M23,6.33c-.3,0-.18-.27.28-.5a2.81,2.81,0,0,1,1.4-.32c.32,0,.18.28-.28.51A2.75,2.75,0,0,1,23,6.33Z"/><path class="cls-1" d="M21.44,6.09c-.27,0-.15-.2.27-.41A3.06,3.06,0,0,1,23,5.34c.27,0,.15.21-.26.42A3.14,3.14,0,0,1,21.44,6.09Z"/><path class="cls-1" d="M19.82,6c-.26,0-.14-.15.27-.36a3.69,3.69,0,0,1,1.22-.38c.26,0,.13.16-.28.37A3.38,3.38,0,0,1,19.82,6Z"/><path class="cls-1" d="M18.38,6.06c-.2,0-.1-.09.23-.25a3.38,3.38,0,0,1,1-.34c.2,0,.09.09-.23.26A3.77,3.77,0,0,1,18.38,6.06Z"/><path class="cls-1" d="M17,6.23c-.14,0-.06,0,.17-.15a5,5,0,0,1,.68-.28c.14,0,.06,0-.17.16A3,3,0,0,1,17,6.23Z"/><path class="cls-1" d="M15.5,6.64c-.14.05-.06,0,.18-.12s.53-.25.67-.31.06,0-.18.14A5.19,5.19,0,0,1,15.5,6.64Z"/><path class="cls-1" d="M14,7.21c-.14.06,0,0,.18-.11l.67-.32c.13-.06,0,0-.18.1Z"/><path class="cls-1" d="M12.75,7.85c-.09.05,0,0,.13,0s.36-.19.45-.23,0,0-.13,0Z"/><path class="cls-1" d="M11.38,8.71c-.08.06,0,0,.13,0a2.62,2.62,0,0,0,.42-.22c.08-.06,0,0-.13,0A3,3,0,0,0,11.38,8.71Z"/><path class="cls-1" d="M10.12,9.69c-.06,0,0,0,.09,0a1.11,1.11,0,0,0,.29-.18c.06,0,0,0-.09,0A1.66,1.66,0,0,0,10.12,9.69Z"/><path class="cls-1" d="M8.83,10.83c-.05,0,0,.05.08,0a1.36,1.36,0,0,0,.25-.16s0,0-.08,0A1.09,1.09,0,0,0,8.83,10.83Z"/><path class="cls-1" d="M7.58,12.11s0,.05.06,0a.63.63,0,0,0,.2-.13s0,0-.07,0A.57.57,0,0,0,7.58,12.11Z"/><path class="cls-1" d="M6.37,13.53s0,0,0,0a.43.43,0,0,0,.13-.09s0,0,0,0A.79.79,0,0,0,6.37,13.53Z"/><polygon class="cls-1" points="171.05 19.22 171.05 19.23 171.06 19.22 171.06 19.21 171.05 19.22"/><polygon class="cls-1" points="169.73 22.1 169.73 22.1 169.73 22.09 169.73 22.09 169.73 22.1"/><polygon class="cls-1" points="168.37 24.95 168.38 24.97 168.41 24.95 168.4 24.93 168.37 24.95"/><polygon class="cls-1" points="167 27.78 167.02 27.81 167.08 27.77 167.06 27.74 167 27.78"/><path class="cls-1" d="M165.62,30.57a0,0,0,0,0,0,0,.19.19,0,0,0,.08-.05s0,0,0,0S165.63,30.55,165.62,30.57Z"/><path class="cls-1" d="M164.21,33.32s0,.06,0,0a.17.17,0,0,0,.1-.07s0-.06,0-.06A.16.16,0,0,0,164.21,33.32Z"/><path class="cls-1" d="M162.77,36s0,.09,0,.08A.18.18,0,0,0,163,36s0-.08,0-.07A.23.23,0,0,0,162.77,36Z"/><path class="cls-1" d="M161.32,38.63c0,.06,0,.1,0,.09a.27.27,0,0,0,.17-.11.05.05,0,0,0-.05-.08A.21.21,0,0,0,161.32,38.63Z"/><path class="cls-1" d="M159.84,41.19c0,.06,0,.1.06.09a.22.22,0,0,0,.17-.11c0-.06,0-.1,0-.09A.23.23,0,0,0,159.84,41.19Z"/><path class="cls-1" d="M158.33,43.68c0,.06,0,.11.06.11a.36.36,0,0,0,.21-.13c0-.07,0-.12-.06-.11A.3.3,0,0,0,158.33,43.68Z"/><path class="cls-1" d="M156.78,46.08c0,.07,0,.12.07.12a.35.35,0,0,0,.25-.14c0-.08,0-.13-.07-.13A.37.37,0,0,0,156.78,46.08Z"/><path class="cls-1" d="M155.21,48.39c-.05.07,0,.13.08.13a.47.47,0,0,0,.27-.14c.06-.08,0-.15-.08-.15A.42.42,0,0,0,155.21,48.39Z"/><path class="cls-1" d="M153.61,50.6c-.07.08,0,.14.08.14a.44.44,0,0,0,.3-.15c0-.08,0-.15-.09-.15A.43.43,0,0,0,153.61,50.6Z"/><path class="cls-1" d="M152,52.7c-.06.09,0,.15.09.15a.46.46,0,0,0,.33-.15c.07-.08,0-.15-.09-.15A.56.56,0,0,0,152,52.7Z"/><path class="cls-1" d="M150.28,54.7c-.07.09,0,.15.09.15a.5.5,0,0,0,.36-.15c.07-.08,0-.16-.09-.16A.66.66,0,0,0,150.28,54.7Z"/><path class="cls-1" d="M148.58,56.59c-.08.08,0,.15.09.15a.61.61,0,0,0,.37-.15c.07-.08,0-.15-.09-.15A.52.52,0,0,0,148.58,56.59Z"/><path class="cls-1" d="M146.8,58.35c-.09.09-.05.16.1.16a.71.71,0,0,0,.44-.15c.09-.09,0-.16-.1-.17A.71.71,0,0,0,146.8,58.35Z"/><path class="cls-1" d="M145,60c-.09.09,0,.16.11.16a.83.83,0,0,0,.45-.14c.09-.08.05-.15-.1-.16A.84.84,0,0,0,145,60Z"/><path class="cls-1" d="M143.17,61.5c-.11.08-.06.15.11.16a1,1,0,0,0,.49-.15c.1-.09,0-.15-.11-.16A.79.79,0,0,0,143.17,61.5Z"/><path class="cls-1" d="M141.28,62.87c-.11.08-.06.14.11.15a1,1,0,0,0,.54-.13c.12-.08.06-.16-.11-.16A1,1,0,0,0,141.28,62.87Z"/><path class="cls-1" d="M139.38,64.1c-.12.07-.08.13.1.14a1.3,1.3,0,0,0,.54-.11c.12-.08.07-.14-.11-.15A1.09,1.09,0,0,0,139.38,64.1Z"/><path class="cls-1" d="M137.39,65.19c-.13.07-.08.13.11.14a1.24,1.24,0,0,0,.6-.12c.14-.06.09-.13-.11-.14A1.6,1.6,0,0,0,137.39,65.19Z"/><path class="cls-1" d="M135.4,66.13c-.14.06-.09.12.1.13a1.87,1.87,0,0,0,.61-.09c.14-.07.09-.11-.1-.13A1.63,1.63,0,0,0,135.4,66.13Z"/><path class="cls-1" d="M133.34,66.93c-.16,0-.11.1.1.11a1.76,1.76,0,0,0,.67-.08c.15,0,.1-.1-.12-.11A1.9,1.9,0,0,0,133.34,66.93Z"/><path class="cls-1" d="M131.19,67.57c-.18.05-.13.1.12.11a3.1,3.1,0,0,0,.78-.07c.19,0,.13-.1-.12-.11A2.7,2.7,0,0,0,131.19,67.57Z"/><path class="cls-1" d="M129.05,68.06c-.19,0-.14.08.12.1a5.16,5.16,0,0,0,.82,0c.19,0,.14-.08-.12-.09A3.55,3.55,0,0,0,129.05,68.06Z"/><path class="cls-1" d="M126.88,68.4c-.21,0-.16.06.11.07a4.57,4.57,0,0,0,.84,0c.21,0,.15,0-.11-.07S127.07,68.38,126.88,68.4Z"/><path class="cls-1" d="M124.63,68.59c-.23,0-.18,0,.1,0h.94c.22,0,.17,0-.12-.05S124.85,68.58,124.63,68.59Z"/><path class="cls-1" d="M122.36,68.63c-.22,0-.18,0,.11,0l1,0c.24,0,.19,0-.1,0Z"/><path class="cls-1" d="M120.38,68.53c-.1,0-.08,0,0,0l.43,0c.1,0,.08,0,0,0Z"/><path class="cls-1" d="M118,68.26c-.16,0-.13,0,0,0a5.14,5.14,0,0,1,.59,0c.14,0,.12,0,0,0Z"/><path class="cls-1" d="M115.55,67.84c-.18,0-.14-.06.06,0a3.84,3.84,0,0,1,.7.08c.17,0,.14.06-.07,0A4.67,4.67,0,0,1,115.55,67.84Z"/><path class="cls-1" d="M113.11,67.28c-.2-.06-.18-.1.06-.09a4.85,4.85,0,0,1,.79.11c.19,0,.17.09-.07.08A3.78,3.78,0,0,1,113.11,67.28Z"/><path class="cls-1" d="M110.43,66.57c-.32-.1-.27-.18.1-.17a5.54,5.54,0,0,1,1.24.19c.31.11.27.18-.09.17A5.45,5.45,0,0,1,110.43,66.57Z"/><path class="cls-1" d="M108,65.73c-.33-.13-.29-.22.09-.22a4.6,4.6,0,0,1,1.29.23c.33.12.29.22-.09.22A5.36,5.36,0,0,1,108,65.73Z"/><path class="cls-1" d="M105.44,64.74c-.35-.14-.32-.25.08-.26a4.06,4.06,0,0,1,1.35.28c.35.14.3.25-.09.25A4,4,0,0,1,105.44,64.74Z"/><path class="cls-1" d="M102.9,63.64c-.37-.16-.33-.31.07-.31a4,4,0,0,1,1.4.3c.36.17.33.31-.08.31A3.85,3.85,0,0,1,102.9,63.64Z"/><path class="cls-1" d="M100.33,62.41c-.38-.19-.35-.36.08-.36a3.48,3.48,0,0,1,1.44.33c.38.2.35.36-.07.37A3.67,3.67,0,0,1,100.33,62.41Z"/><path class="cls-1" d="M97.8,61.06c-.37-.2-.34-.37.06-.39a3.26,3.26,0,0,1,1.41.35c.36.2.33.38-.07.38A3.17,3.17,0,0,1,97.8,61.06Z"/><path class="cls-1" d="M95.19,59.6c-.39-.22-.37-.43.06-.45a3.19,3.19,0,0,1,1.46.39c.39.23.37.42-.06.44A3.06,3.06,0,0,1,95.19,59.6Z"/><path class="cls-1" d="M92.57,58c-.41-.25-.39-.48,0-.51a3.21,3.21,0,0,1,1.54.42c.41.26.38.48-.06.5A3,3,0,0,1,92.57,58Z"/><path class="cls-1" d="M89.93,56.38c-.43-.27-.41-.53,0-.56a2.89,2.89,0,0,1,1.6.45c.42.27.4.53,0,.56A3,3,0,0,1,89.93,56.38Z"/><path class="cls-1" d="M87.28,54.64c-.44-.31-.42-.59,0-.63a3,3,0,0,1,1.66.47c.45.31.42.6,0,.63A3,3,0,0,1,87.28,54.64Z"/><path class="cls-1" d="M84.63,52.81c-.46-.32-.44-.63,0-.69a2.91,2.91,0,0,1,1.72.51c.46.33.44.63,0,.69A3,3,0,0,1,84.63,52.81Z"/><path class="cls-1" d="M82,50.92c-.49-.37-.47-.71,0-.77a2.9,2.9,0,0,1,1.8.55c.49.36.47.7,0,.75A2.93,2.93,0,0,1,82,50.92Z"/><path class="cls-1" d="M79.32,49c-.49-.38-.48-.74,0-.82a2.89,2.89,0,0,1,1.83.56c.49.38.48.74,0,.81A2.91,2.91,0,0,1,79.32,49Z"/><path class="cls-1" d="M76.68,47c-.5-.39-.49-.79,0-.87a2.82,2.82,0,0,1,1.87.57c.51.4.49.79,0,.86A2.81,2.81,0,0,1,76.68,47Z"/><path class="cls-1" d="M74.06,44.89c-.52-.4-.5-.81,0-.91a2.73,2.73,0,0,1,1.9.57c.51.42.49.82,0,.92A2.8,2.8,0,0,1,74.06,44.89Z"/><path class="cls-1" d="M71.44,42.81c-.52-.42-.5-.85,0-1a2.68,2.68,0,0,1,1.91.58c.52.43.51.86,0,1A2.67,2.67,0,0,1,71.44,42.81Z"/><path class="cls-1" d="M68.83,40.7c-.52-.43-.51-.88,0-1a2.55,2.55,0,0,1,2,.57c.53.44.51.89,0,1A2.72,2.72,0,0,1,68.83,40.7Z"/><path class="cls-1" d="M66.25,38.58c-.53-.44-.52-.91,0-1a2.61,2.61,0,0,1,2,.57c.53.46.52.92,0,1A2.59,2.59,0,0,1,66.25,38.58Z"/><path class="cls-1" d="M63.68,36.46c-.53-.45-.52-.93,0-1.07a2.6,2.6,0,0,1,2,.55c.54.47.51.94,0,1.08A2.58,2.58,0,0,1,63.68,36.46Z"/><path class="cls-1" d="M61.13,34.35c-.53-.46-.52-1,0-1.11a2.51,2.51,0,0,1,2,.54c.54.46.52,1,0,1.11A2.56,2.56,0,0,1,61.13,34.35Z"/><path class="cls-1" d="M58.69,32.23c-.5-.42-.48-.89.05-1a2.26,2.26,0,0,1,1.87.49c.5.43.48.9,0,1A2.34,2.34,0,0,1,58.69,32.23Z"/><path class="cls-1" d="M56.2,30.16c-.49-.42-.47-.89.06-1.07a2.25,2.25,0,0,1,1.88.46c.51.43.48.91,0,1.08A2.29,2.29,0,0,1,56.2,30.16Z"/><path class="cls-1" d="M53.75,28.13c-.5-.41-.47-.9.06-1.08a2.25,2.25,0,0,1,1.89.43c.5.43.48.91-.06,1.09A2.23,2.23,0,0,1,53.75,28.13Z"/><path class="cls-1" d="M51.33,26.15c-.5-.41-.47-.89.07-1.09a2.15,2.15,0,0,1,1.9.4c.51.42.47.91-.08,1.1A2.21,2.21,0,0,1,51.33,26.15Z"/><path class="cls-1" d="M48.91,24.24c-.52-.41-.49-.92.08-1.14a2.21,2.21,0,0,1,2,.38c.53.43.49.95-.09,1.16A2.26,2.26,0,0,1,48.91,24.24Z"/><path class="cls-1" d="M46.57,22.39c-.52-.4-.47-.92.1-1.14a2.19,2.19,0,0,1,2,.33c.52.42.47.93-.11,1.16A2.25,2.25,0,0,1,46.57,22.39Z"/><path class="cls-1" d="M44.26,20.62c-.51-.39-.46-.91.12-1.15a2.21,2.21,0,0,1,2,.29c.52.4.46.92-.12,1.15A2.25,2.25,0,0,1,44.26,20.62Z"/><path class="cls-1" d="M42.1,18.88a.55.55,0,0,1,.12-1,2,2,0,0,1,1.78.22c.46.35.41.81-.12,1A2,2,0,0,1,42.1,18.88Z"/><path class="cls-1" d="M39.81,17.31c-.48-.35-.42-.84.14-1.09a2.13,2.13,0,0,1,1.92.18c.5.36.43.85-.14,1.09A2.13,2.13,0,0,1,39.81,17.31Z"/><path class="cls-1" d="M37.66,15.8c-.47-.32-.4-.79.16-1.05a2.1,2.1,0,0,1,1.88.12c.47.33.4.8-.16,1.06A2.17,2.17,0,0,1,37.66,15.8Z"/><path class="cls-1" d="M35.64,14.36c-.42-.27-.35-.68.15-.93a1.92,1.92,0,0,1,1.69.06c.42.27.35.7-.16.93A1.93,1.93,0,0,1,35.64,14.36Z"/><path class="cls-1" d="M33.59,13.07c-.41-.25-.33-.64.16-.88a1.88,1.88,0,0,1,1.64,0c.41.25.33.65-.17.88A1.93,1.93,0,0,1,33.59,13.07Z"/><path class="cls-1" d="M31.58,11.89c-.39-.21-.31-.59.18-.83A1.89,1.89,0,0,1,33.35,11c.39.23.31.59-.18.84A1.92,1.92,0,0,1,31.58,11.89Z"/><path class="cls-1" d="M29.64,10.85c-.37-.19-.29-.54.19-.77A1.91,1.91,0,0,1,31.35,10c.37.19.28.54-.2.78A2,2,0,0,1,29.64,10.85Z"/><path class="cls-1" d="M27.71,9.93c-.35-.16-.26-.48.21-.72a2,2,0,0,1,1.5-.16c.36.17.27.5-.2.73A2,2,0,0,1,27.71,9.93Z"/><path class="cls-1" d="M26,9.09c-.29-.11-.21-.37.18-.58a1.79,1.79,0,0,1,1.23-.17c.29.11.2.37-.19.58A1.76,1.76,0,0,1,26,9.09Z"/><path class="cls-1" d="M24.22,8.43c-.26-.09-.18-.31.18-.5a1.67,1.67,0,0,1,1.11-.2c.26.08.18.31-.18.49A1.81,1.81,0,0,1,24.22,8.43Z"/><path class="cls-1" d="M22.47,7.92c-.24-.06-.16-.26.19-.44a1.72,1.72,0,0,1,1.05-.23c.24.06.15.25-.19.44A1.75,1.75,0,0,1,22.47,7.92Z"/><path class="cls-1" d="M21.15,7.35c-.08,0,0-.08.06-.14a.68.68,0,0,1,.36-.09c.08,0,.05.07-.06.14A.79.79,0,0,1,21.15,7.35Z"/><path class="cls-1" d="M19.21,7.3c-.18,0-.11-.14.15-.28a1.79,1.79,0,0,1,.79-.24c.18,0,.1.14-.16.28A1.75,1.75,0,0,1,19.21,7.3Z"/><path class="cls-1" d="M17.62,7.23c-.15,0-.09-.1.15-.23a1.71,1.71,0,0,1,.7-.24c.15,0,.08.09-.15.22A2,2,0,0,1,17.62,7.23Z"/><path class="cls-1" d="M16.06,7.31c-.13,0-.07-.06.14-.18a2,2,0,0,1,.64-.25c.14,0,.08.07-.14.19A2.06,2.06,0,0,1,16.06,7.31Z"/><path class="cls-1" d="M14.6,7.52c-.1,0,0,0,.12-.12a2.47,2.47,0,0,1,.5-.22c.1,0,0,0-.12.13A2.25,2.25,0,0,1,14.6,7.52Z"/><path class="cls-1" d="M13.15,7.91c-.09,0,0,0,.1-.1a2.77,2.77,0,0,1,.41-.19c.08,0,0,0-.1.09A3.67,3.67,0,0,1,13.15,7.91Z"/><path class="cls-1" d="M11.71,8.45c-.08,0,0,0,.1-.06s.29-.16.36-.2,0,0-.09.07Z"/><path class="cls-1" d="M10.31,9.14c-.06,0,0,0,.09,0l.32-.18L10.63,9Z"/><path class="cls-1" d="M9,10S9,10,9,10a1.46,1.46,0,0,0,.24-.15c.05,0,0,0-.07,0Z"/><path class="cls-1" d="M7.65,11s0,0,.06,0,.15-.09.19-.11,0,0-.06,0S7.69,10.93,7.65,11Z"/><path class="cls-1" d="M6.35,12.09s0,0,.05,0l.16-.1s0,0,0,0A.74.74,0,0,0,6.35,12.09Z"/><path class="cls-1" d="M5.1,13.35s0,0,0,0a.48.48,0,0,0,.11-.06s0,0,0,0Z"/><path class="cls-1" d="M3.85,14.77s0,0,0,0L4,14.71s0,0,0,0A.32.32,0,0,0,3.85,14.77Z"/><polygon class="cls-1" points="2.65 16.3 2.66 16.3 2.68 16.28 2.67 16.28 2.65 16.3"/><polygon class="cls-1" points="168.39 19.75 168.39 19.75 168.4 19.74 168.4 19.74 168.39 19.75"/><polygon class="cls-1" points="167.04 22.57 167.06 22.58 167.06 22.57 167.06 22.57 167.04 22.57"/><polygon class="cls-1" points="165.69 25.38 165.7 25.4 165.72 25.38 165.72 25.37 165.69 25.38"/><polygon class="cls-1" points="164.32 28.17 164.33 28.18 164.36 28.16 164.35 28.15 164.32 28.17"/><polygon class="cls-1" points="162.94 30.91 162.95 30.93 162.97 30.9 162.97 30.89 162.94 30.91"/><polygon class="cls-1" points="161.52 33.6 161.53 33.64 161.58 33.6 161.57 33.57 161.52 33.6"/><polygon class="cls-1" points="160.09 36.25 160.1 36.29 160.16 36.25 160.15 36.22 160.09 36.25"/><polygon class="cls-1" points="158.64 38.84 158.66 38.87 158.72 38.84 158.7 38.8 158.64 38.84"/><path class="cls-1" d="M157.15,41.35l0,0s.08,0,.08,0,0,0,0,0A.28.28,0,0,0,157.15,41.35Z"/><path class="cls-1" d="M155.65,43.8s0,0,0,0l.08,0,0,0Z"/><path class="cls-1" d="M154.11,46.16s0,.05,0,.05l.09-.05s0,0,0,0A.31.31,0,0,0,154.11,46.16Z"/><path class="cls-1" d="M152.55,48.44s0,0,0,0a.29.29,0,0,0,.08,0s0,0,0,0A.14.14,0,0,0,152.55,48.44Z"/><path class="cls-1" d="M150.93,50.61s0,0,0,0a.14.14,0,0,0,.11,0s0,0,0,0A.14.14,0,0,0,150.93,50.61Z"/><path class="cls-1" d="M149.29,52.69s0,.05,0,.05a.13.13,0,0,0,.12-.05s0,0,0,0A.15.15,0,0,0,149.29,52.69Z"/><path class="cls-1" d="M147.61,54.66s0,.05,0,.05a.2.2,0,0,0,.13,0s0-.06,0-.07A.25.25,0,0,0,147.61,54.66Z"/><path class="cls-1" d="M145.92,56.52s0,0,0,0a.35.35,0,0,0,.12,0s0,0,0,0S145.92,56.52,145.92,56.52Z"/><path class="cls-1" d="M144.15,58.25s0,.06,0,.06a.24.24,0,0,0,.14-.05s0,0,0,0A.37.37,0,0,0,144.15,58.25Z"/><path class="cls-1" d="M142.36,59.87s0,.05,0,.06a.28.28,0,0,0,.16,0s0-.06,0-.06A.25.25,0,0,0,142.36,59.87Z"/><path class="cls-1" d="M140.51,61.36s0,0,0,.06a.38.38,0,0,0,.19-.05s0-.06,0-.07A.27.27,0,0,0,140.51,61.36Z"/><path class="cls-1" d="M138.63,62.7s0,.07,0,.08a.71.71,0,0,0,.22-.05s0-.07,0-.07A.38.38,0,0,0,138.63,62.7Z"/><path class="cls-1" d="M136.74,63.92c-.06,0,0,0,0,.06a.3.3,0,0,0,.19,0s0,0,0,0A.27.27,0,0,0,136.74,63.92Z"/><path class="cls-1" d="M134.76,65c-.06,0,0,0,0,.06a.56.56,0,0,0,.23,0c.06,0,0-.06,0-.07A.79.79,0,0,0,134.76,65Z"/><path class="cls-1" d="M132.79,65.94c-.06,0,0,0,0,0a.39.39,0,0,0,.19,0c.05,0,0,0,0,0A.37.37,0,0,0,132.79,65.94Z"/><path class="cls-1" d="M130.72,66.73c-.05,0,0,0,0,0a.62.62,0,0,0,.24,0c.05,0,0,0,0,0A.61.61,0,0,0,130.72,66.73Z"/><path class="cls-1" d="M128.62,67.37c-.06,0-.05,0,0,0a.84.84,0,0,0,.28,0c.06,0,.05-.05,0-.05A.8.8,0,0,0,128.62,67.37Z"/><path class="cls-1" d="M126.48,67.86c-.08,0,0,0,0,0a1,1,0,0,0,.31,0c.08,0,.06,0,0,0A1.05,1.05,0,0,0,126.48,67.86Z"/><path class="cls-1" d="M124.35,68.21c-.06,0,0,0,0,0h.24c.06,0,0,0,0,0Z"/><path class="cls-1" d="M122.11,68.4c-.07,0,0,0,0,0h.31c.07,0,.05,0,0,0S122.19,68.39,122.11,68.4Z"/><path class="cls-1" d="M119.83,68.44c-.09,0-.07,0,0,0l.38,0c.1,0,.08,0,0,0A2.55,2.55,0,0,0,119.83,68.44Z"/><path class="cls-1" d="M117.6,68.33c-.08,0-.07,0,0,0l.28,0c.08,0,.07,0,0,0Z"/><path class="cls-1" d="M115.26,68.08q-.12,0,0,0l.32,0c.08,0,.07,0,0,0Z"/><path class="cls-1" d="M112.88,67.68c-.08,0-.07,0,0,0l.37,0c.09,0,.08,0,0,0Z"/><path class="cls-1" d="M110.47,67.14c-.09,0-.08,0,0,0l.4.06c.11,0,.09,0,0,0Z"/><path class="cls-1" d="M108,66.45c-.11,0-.1,0,0,0a1.75,1.75,0,0,1,.42.07c.11,0,.1,0,0,0A1.84,1.84,0,0,1,108,66.45Z"/><path class="cls-1" d="M105.56,65.63c-.11,0-.1-.06,0-.06a1.63,1.63,0,0,1,.45.09c.12,0,.11.07,0,.07A1.79,1.79,0,0,1,105.56,65.63Z"/><path class="cls-1" d="M103.07,64.68c-.13-.05-.11-.09,0-.09a2,2,0,0,1,.49.11q.19.09,0,.09A2,2,0,0,1,103.07,64.68Z"/><path class="cls-1" d="M100.54,63.6c-.14-.06-.12-.11,0-.1a1.41,1.41,0,0,1,.53.12c.15.06.13.1,0,.1A1.63,1.63,0,0,1,100.54,63.6Z"/><path class="cls-1" d="M98,62.4c-.16-.07-.15-.14,0-.13a1.65,1.65,0,0,1,.57.14c.15.07.14.13,0,.13A1.41,1.41,0,0,1,98,62.4Z"/><path class="cls-1" d="M95.44,61.08c-.16-.08-.15-.15,0-.15a1.56,1.56,0,0,1,.59.15c.15.09.14.16,0,.16A1.37,1.37,0,0,1,95.44,61.08Z"/><path class="cls-1" d="M92.85,59.65c-.17-.08-.15-.17,0-.17a1.26,1.26,0,0,1,.62.17c.17.1.16.17,0,.17A1.41,1.41,0,0,1,92.85,59.65Z"/><path class="cls-1" d="M90.26,58.13c-.17-.1-.16-.19,0-.2a1.38,1.38,0,0,1,.64.18c.17.11.16.19,0,.2A1.51,1.51,0,0,1,90.26,58.13Z"/><path class="cls-1" d="M87.65,56.5c-.18-.11-.17-.21,0-.22a1.3,1.3,0,0,1,.66.2c.18.11.17.2,0,.22A1.4,1.4,0,0,1,87.65,56.5Z"/><path class="cls-1" d="M85,54.8c-.18-.13-.18-.24,0-.26a1.32,1.32,0,0,1,.69.21c.19.12.18.24,0,.25A1.3,1.3,0,0,1,85,54.8Z"/><path class="cls-1" d="M82.42,53c-.2-.13-.19-.26,0-.28a1.23,1.23,0,0,1,.71.22c.19.13.18.25,0,.27A1.27,1.27,0,0,1,82.42,53Z"/><path class="cls-1" d="M79.92,51.13c-.13-.09-.12-.17,0-.19a.87.87,0,0,1,.47.15c.13.09.13.18,0,.19A.79.79,0,0,1,79.92,51.13Z"/><path class="cls-1" d="M77.28,49.22c-.15-.11-.15-.21,0-.24a1,1,0,0,1,.55.17c.14.11.14.22,0,.24A.86.86,0,0,1,77.28,49.22Z"/><path class="cls-1" d="M74.63,47.25c-.16-.13-.16-.26,0-.28a1,1,0,0,1,.61.19c.17.13.17.26,0,.28A1,1,0,0,1,74.63,47.25Z"/><path class="cls-1" d="M72,45.24c-.19-.14-.19-.29,0-.32a1,1,0,0,1,.68.21c.19.15.19.29,0,.32A1,1,0,0,1,72,45.24Z"/><path class="cls-1" d="M69.37,43.2c-.2-.16-.2-.33,0-.37a1.07,1.07,0,0,1,.74.23c.21.16.21.33,0,.36A1,1,0,0,1,69.37,43.2Z"/><path class="cls-1" d="M66.76,41.13c-.22-.17-.22-.36,0-.41a1.22,1.22,0,0,1,.81.24c.22.19.22.37,0,.42A1.11,1.11,0,0,1,66.76,41.13Z"/><path class="cls-1" d="M64.22,39.06c-.21-.18-.21-.35,0-.41a1,1,0,0,1,.77.22c.21.18.21.36,0,.41A1.11,1.11,0,0,1,64.22,39.06Z"/><path class="cls-1" d="M61.82,36.94c-.14-.12-.14-.24,0-.28a.71.71,0,0,1,.51.14c.13.12.13.24,0,.28A.6.6,0,0,1,61.82,36.94Z"/><path class="cls-1" d="M59.27,34.87c-.15-.13-.15-.27,0-.31a.72.72,0,0,1,.55.14c.16.14.15.28,0,.32A.74.74,0,0,1,59.27,34.87Z"/><path class="cls-1" d="M56.75,32.82c-.17-.14-.17-.3,0-.35a.77.77,0,0,1,.62.16c.17.13.16.29,0,.34A.71.71,0,0,1,56.75,32.82Z"/><path class="cls-1" d="M54.25,30.8c-.17-.16-.17-.33,0-.39a.83.83,0,0,1,.68.16c.18.16.17.33,0,.39A.84.84,0,0,1,54.25,30.8Z"/><path class="cls-1" d="M51.79,28.81c-.19-.16-.18-.34,0-.41a.84.84,0,0,1,.72.15c.19.17.19.35,0,.42A.85.85,0,0,1,51.79,28.81Z"/><path class="cls-1" d="M49.37,26.88c-.21-.17-.2-.37,0-.45a.88.88,0,0,1,.77.15c.2.17.19.37,0,.45A.87.87,0,0,1,49.37,26.88Z"/><path class="cls-1" d="M47,25c-.21-.17-.2-.38,0-.47a.92.92,0,0,1,.81.14c.21.17.2.39,0,.48A.93.93,0,0,1,47,25Z"/><path class="cls-1" d="M44.82,23.11c-.13-.1-.13-.23,0-.29a.54.54,0,0,1,.49.08c.13.1.12.24,0,.29A.54.54,0,0,1,44.82,23.11Z"/><path class="cls-1" d="M42.5,21.38c-.14-.11-.13-.26,0-.33a.62.62,0,0,1,.56.07c.14.11.13.26,0,.33A.6.6,0,0,1,42.5,21.38Z"/><path class="cls-1" d="M40.22,19.73c-.16-.12-.15-.28,0-.36a.65.65,0,0,1,.62.06c.16.12.15.28,0,.36A.65.65,0,0,1,40.22,19.73Z"/><path class="cls-1" d="M38.1,18.12c-.12-.09-.11-.21,0-.27a.47.47,0,0,1,.46,0c.12.08.1.2,0,.26A.5.5,0,0,1,38.1,18.12Z"/><path class="cls-1" d="M35.92,16.65c-.13-.08-.11-.21,0-.29a.53.53,0,0,1,.49,0c.13.08.12.21,0,.28A.52.52,0,0,1,35.92,16.65Z"/><path class="cls-1" d="M33.79,15.29c-.13-.08-.12-.23,0-.3a.55.55,0,0,1,.54,0c.13.08.11.22,0,.3A.64.64,0,0,1,33.79,15.29Z"/><path class="cls-1" d="M31.7,14.05c-.15-.09-.12-.23.05-.33a.73.73,0,0,1,.58,0c.15.09.13.24,0,.33A.66.66,0,0,1,31.7,14.05Z"/><path class="cls-1" d="M29.69,12.91c-.14-.08-.11-.21.06-.31a.65.65,0,0,1,.56,0c.14.08.11.21-.06.31A.65.65,0,0,1,29.69,12.91Z"/><path class="cls-1" d="M27.74,11.89c-.13-.07-.11-.19.06-.29a.67.67,0,0,1,.53,0c.13.07.1.19-.06.29A.67.67,0,0,1,27.74,11.89Z"/><path class="cls-1" d="M25.84,11c-.12-.05-.1-.15.06-.25a.67.67,0,0,1,.49-.06c.12.06.09.17-.06.25A.58.58,0,0,1,25.84,11Z"/><path class="cls-1" d="M24.07,10.18c-.07,0-.05-.1,0-.15a.41.41,0,0,1,.31-.06c.07,0,0,.1-.05.15A.43.43,0,0,1,24.07,10.18Z"/><path class="cls-1" d="M22.19,9.59c-.1,0-.07-.11.06-.19a.58.58,0,0,1,.41-.08c.09,0,.06.11-.07.19A.52.52,0,0,1,22.19,9.59Z"/><path class="cls-1" d="M20.46,9.1c-.08,0-.06-.09.05-.15a.48.48,0,0,1,.33-.08c.07,0,.05.08-.06.14A.54.54,0,0,1,20.46,9.1Z"/><path class="cls-1" d="M18.78,8.73c-.05,0,0-.06,0-.1a.46.46,0,0,1,.23-.06c.06,0,0,0,0,.09A.43.43,0,0,1,18.78,8.73Z"/><path class="cls-1" d="M17.09,8.55c-.06,0,0,0,0-.1a.59.59,0,0,1,.26-.08c.06,0,0,0-.05.1A.59.59,0,0,1,17.09,8.55Z"/><path class="cls-1" d="M15.48,8.49s0,0,0-.06a.59.59,0,0,1,.2-.08s0,0,0,.07A.44.44,0,0,1,15.48,8.49Z"/><path class="cls-1" d="M13.91,8.59s0,0,0-.05a.35.35,0,0,1,.16-.07s0,0,0,0A.38.38,0,0,1,13.91,8.59Z"/><path class="cls-1" d="M12.36,8.85s0,0,0,0l.18-.08s0,0,0,0A.8.8,0,0,1,12.36,8.85Z"/><path class="cls-1" d="M10.88,9.24s0,0,0,0L11,9.14s0,0,0,0Z"/><path class="cls-1" d="M9.4,9.8l0,0,.14-.07s0,0,0,0Z"/><path class="cls-1" d="M8,10.49l0,0,.09-.06s0,0,0,0Z"/><path class="cls-1" d="M6.62,11.33l0,0,.08,0h0Z"/><path class="cls-1" d="M5.27,12.31h0l.07,0h0Z"/><polygon class="cls-1" points="3.94 13.44 3.96 13.44 4.03 13.39 4.01 13.4 3.94 13.44"/><polygon class="cls-1" points="2.67 14.69 2.68 14.69 2.71 14.67 2.7 14.67 2.67 14.69"/><polygon class="cls-1" points="1.41 16.08 1.42 16.08 1.43 16.07 1.43 16.07 1.41 16.08"/></g></svg>