<?xml version="1.0" encoding="utf-8"?>
<!-- Generator: Adobe Illustrator 23.0.4, SVG Export Plug-In . SVG Version: 6.00 Build 0)  -->
<svg version="1.1" id="Layer_1"
	xmlns="http://www.w3.org/2000/svg"
	xmlns:xlink="http://www.w3.org/1999/xlink" x="0px" y="0px" viewBox="0 0 396 396" style="enable-background:new 0 0 1714.9 396;" xml:space="preserve">
	<style type="text/css">
	.st0{fill:#CD163F;}
	.st1{fill:url(#SVGID_1_);}
	</style>
	<linearGradient id="SVGID_1_" gradientUnits="userSpaceOnUse" x1="0" y1="0" x2="275.36" y2="393.0351" gradientTransform="matrix(1 0 0 -1 0 396)">
		<stop offset="0.28" style="stop-color:#CD163F"/>
		<stop offset="0.9" style="stop-color:#F58025"/>
	</linearGradient>
	<path class="st1" d="M112.7,122.7L271.2,5.3c2.3-1.7,1.1-5.3-1.7-5.3H139.5C124.5,0,110,6,99.4,16.6L16.6,99.3
	C6,110,0,124.4,0,139.5v117c0,15.1,6,29.5,16.6,40.2l82.7,82.7C110,390,124.5,396,139.5,396H252c3.1,0,4.1-4.2,1.2-5.6L29.7,285
	c-9.3-4.4-15.3-13.8-15.3-24.1v-56.1c0-5.9,2.8-11.4,7.5-14.9l32.2-23.9v-43.4H112.7z"/>
	<path class="st0" d="M266.8,167.9l-15.3,41.6h29.9L266.8,167.9z M138.2,169.6c0-13.3-9.1-15.2-18.7-15.2h-19.3v31.4h18.6
	C128.6,185.7,138.2,184.4,138.2,169.6L138.2,169.6z"/>
	<path class="st0" d="M381.6,101.6l-77-77c-4.3-4.3-11.1-4.9-16.2-1.4l-148.2,99.8c28.1,1.8,45.1,13.1,45.1,39.1
	c0,22.6-12.2,36.7-32.9,39.2v0.4c9.6,1.8,16,6.2,20.7,12.2c1.7,2.1,2.8,4.6,3.4,7.1l11.7,35.5l50.4-126.2c1.8-4.4,6.1-7.3,10.8-7.3
	h44.3l58.9,147.4h-36.4c-7.4,0-14.3-4.7-17.4-11.7v0l-5.7-16.1h-53.5l-10.4,27.8h-79.9c-4.3,0-7.9-3.1-8.6-7.5l-13.3-38.6
	c-1.8-6.6-8.4-7.7-14.9-7.7H99.6v53.7H54.1v-89.4l-27.2,18.3c-2.5,1.7-3.9,4.5-3.9,7.5v56.9c0,3.7,2.2,7,5.5,8.4L285,379.4
	c4.8,2.1,10.3,1,14-2.6l82.6-82.3c9.3-9.2,14.5-21.8,14.5-34.9V136.4C396.1,123.3,390.9,110.8,381.6,101.6L381.6,101.6z"/>
</svg>
